{
	"patcher" : 	{
		"fileversion" : 1,
		"appversion" : 		{
			"major" : 6,
			"minor" : 0,
			"revision" : 8
		}
,
		"rect" : [ 0.0, 44.0, 1440.0, 774.0 ],
		"bglocked" : 0,
		"openinpresentation" : 0,
		"default_fontsize" : 12.0,
		"default_fontface" : 0,
		"default_fontname" : "Arial",
		"gridonopen" : 0,
		"gridsize" : [ 8.0, 8.0 ],
		"gridsnaponopen" : 0,
		"statusbarvisible" : 2,
		"toolbarvisible" : 1,
		"boxanimatetime" : 200,
		"imprint" : 0,
		"enablehscroll" : 1,
		"enablevscroll" : 1,
		"devicewidth" : 0.0,
		"description" : "",
		"digest" : "",
		"tags" : "",
		"boxes" : [ 			{
				"box" : 				{
					"fontname" : "Arial",
					"fontsize" : 12.0,
					"id" : "obj-5",
					"maxclass" : "number",
					"numinlets" : 1,
					"numoutlets" : 2,
					"outlettype" : [ "int", "bang" ],
					"parameter_enable" : 0,
					"patching_rect" : [ 608.0, 32.0, 50.0, 20.0 ]
				}

			}
, 			{
				"box" : 				{
					"fontname" : "Arial",
					"fontsize" : 12.0,
					"id" : "obj-2",
					"maxclass" : "message",
					"numinlets" : 2,
					"numoutlets" : 1,
					"outlettype" : [ "" ],
					"patching_rect" : [ 1048.0, 88.0, 94.0, 18.0 ],
					"text" : "88 89.5 94 94.5"
				}

			}
, 			{
				"box" : 				{
					"fontname" : "Arial",
					"fontsize" : 12.0,
					"id" : "obj-64",
					"maxclass" : "newobj",
					"numinlets" : 1,
					"numoutlets" : 1,
					"outlettype" : [ "int" ],
					"patcher" : 					{
						"fileversion" : 1,
						"appversion" : 						{
							"major" : 6,
							"minor" : 0,
							"revision" : 8
						}
,
						"rect" : [ 25.0, 69.0, 765.0, 648.0 ],
						"bglocked" : 0,
						"openinpresentation" : 0,
						"default_fontsize" : 12.0,
						"default_fontface" : 0,
						"default_fontname" : "Arial",
						"gridonopen" : 0,
						"gridsize" : [ 8.0, 8.0 ],
						"gridsnaponopen" : 0,
						"statusbarvisible" : 2,
						"toolbarvisible" : 1,
						"boxanimatetime" : 200,
						"imprint" : 0,
						"enablehscroll" : 1,
						"enablevscroll" : 1,
						"devicewidth" : 0.0,
						"description" : "",
						"digest" : "",
						"tags" : "",
						"boxes" : [ 							{
								"box" : 								{
									"fontname" : "Arial",
									"fontsize" : 12.0,
									"frgb" : 0.0,
									"id" : "obj-13",
									"linecount" : 2,
									"maxclass" : "comment",
									"numinlets" : 1,
									"numoutlets" : 0,
									"patching_rect" : [ 276.5, 328.0, 139.0, 33.0 ],
									"presentation_rect" : [ 275.0, 328.0, 0.0, 0.0 ],
									"text" : "chord 6:\n73.707809 -> partial 42"
								}

							}
, 							{
								"box" : 								{
									"fontname" : "Arial",
									"fontsize" : 12.0,
									"frgb" : 0.0,
									"id" : "obj-12",
									"linecount" : 5,
									"maxclass" : "comment",
									"numinlets" : 1,
									"numoutlets" : 0,
									"patching_rect" : [ 95.0, 512.0, 139.0, 74.0 ],
									"text" : "chord 11:\n61.707809 -> partial 21\n70.551399 -> partial 35\n84.863136 -> partial 80\n90.688255 -> partial 112"
								}

							}
, 							{
								"box" : 								{
									"fontname" : "Arial",
									"fontsize" : 12.0,
									"frgb" : 0.0,
									"id" : "obj-11",
									"linecount" : 3,
									"maxclass" : "comment",
									"numinlets" : 1,
									"numoutlets" : 0,
									"patching_rect" : [ 95.0, 448.0, 139.0, 47.0 ],
									"text" : "chord 10:\n66.688255 -> partial 28\n76.376518 -> partial 49"
								}

							}
, 							{
								"box" : 								{
									"fontname" : "Arial",
									"fontsize" : 12.0,
									"frgb" : 0.0,
									"id" : "obj-10",
									"linecount" : 4,
									"maxclass" : "comment",
									"numinlets" : 1,
									"numoutlets" : 0,
									"patching_rect" : [ 95.0, 376.0, 139.0, 60.0 ],
									"text" : "chord 8:\n60.863136 -> partial 20\n74.513176 -> partial 44\n85.707809 -> partial 84"
								}

							}
, 							{
								"box" : 								{
									"fontname" : "Arial",
									"fontsize" : 12.0,
									"frgb" : 0.0,
									"id" : "obj-7",
									"linecount" : 2,
									"maxclass" : "comment",
									"numinlets" : 1,
									"numoutlets" : 0,
									"patching_rect" : [ 95.0, 328.0, 139.0, 33.0 ],
									"text" : "chord 7:\n93.53273 -> partial 132"
								}

							}
, 							{
								"box" : 								{
									"fontname" : "Arial",
									"fontsize" : 12.0,
									"frgb" : 0.0,
									"id" : "obj-3",
									"linecount" : 3,
									"maxclass" : "comment",
									"numinlets" : 1,
									"numoutlets" : 0,
									"patching_rect" : [ 95.0, 272.0, 139.0, 47.0 ],
									"text" : "chord 4:\n60.863136 -> partial 20\n78.688255 -> partial 56"
								}

							}
, 							{
								"box" : 								{
									"comment" : "",
									"id" : "obj-9",
									"maxclass" : "outlet",
									"numinlets" : 1,
									"numoutlets" : 0,
									"patching_rect" : [ 390.0, 88.0, 25.0, 25.0 ]
								}

							}
, 							{
								"box" : 								{
									"fontname" : "Arial",
									"fontsize" : 12.0,
									"id" : "obj-8",
									"maxclass" : "number",
									"numinlets" : 1,
									"numoutlets" : 2,
									"outlettype" : [ "int", "bang" ],
									"parameter_enable" : 0,
									"patching_rect" : [ 390.0, 56.0, 50.0, 20.0 ]
								}

							}
, 							{
								"box" : 								{
									"fontname" : "Arial",
									"fontsize" : 12.0,
									"frgb" : 0.0,
									"id" : "obj-6",
									"maxclass" : "comment",
									"numinlets" : 1,
									"numoutlets" : 0,
									"patching_rect" : [ 302.0, 218.0, 88.0, 20.0 ],
									"text" : "asax/vla/p1/p2"
								}

							}
, 							{
								"box" : 								{
									"fontname" : "Arial",
									"fontsize" : 12.0,
									"frgb" : 0.0,
									"id" : "obj-5",
									"maxclass" : "comment",
									"numinlets" : 1,
									"numoutlets" : 0,
									"patching_rect" : [ 562.0, 218.0, 44.0, 20.0 ],
									"text" : "fl/vln"
								}

							}
, 							{
								"box" : 								{
									"fontname" : "Arial",
									"fontsize" : 12.0,
									"frgb" : 0.0,
									"id" : "obj-4",
									"maxclass" : "comment",
									"numinlets" : 1,
									"numoutlets" : 0,
									"patching_rect" : [ 60.0, 218.0, 44.0, 20.0 ],
									"text" : "bcl/vlc"
								}

							}
, 							{
								"box" : 								{
									"fontname" : "Arial",
									"fontsize" : 12.0,
									"id" : "obj-2",
									"maxclass" : "message",
									"numinlets" : 2,
									"numoutlets" : 1,
									"outlettype" : [ "" ],
									"patching_rect" : [ 534.0, 200.0, 192.0, 18.0 ],
									"text" : "89.5 92 95.5 96"
								}

							}
, 							{
								"box" : 								{
									"fontname" : "Arial",
									"fontsize" : 12.0,
									"id" : "obj-1",
									"maxclass" : "message",
									"numinlets" : 2,
									"numoutlets" : 1,
									"outlettype" : [ "" ],
									"patching_rect" : [ 350.0, 200.0, 171.0, 18.0 ],
									"text" : "75 77.5 80.5 87"
								}

							}
, 							{
								"box" : 								{
									"fontname" : "Arial",
									"fontsize" : 12.0,
									"id" : "obj-61",
									"maxclass" : "message",
									"numinlets" : 2,
									"numoutlets" : 1,
									"outlettype" : [ "" ],
									"patching_rect" : [ 206.0, 200.0, 137.0, 18.0 ],
									"text" : "48 50 51.5 73.707809"
								}

							}
, 							{
								"box" : 								{
									"fontname" : "Arial",
									"fontsize" : 12.0,
									"id" : "obj-60",
									"maxclass" : "message",
									"numinlets" : 2,
									"numoutlets" : 1,
									"outlettype" : [ "" ],
									"patching_rect" : [ 32.0, 200.0, 164.0, 18.0 ],
									"text" : "36 38 40 45.5"
								}

							}
, 							{
								"box" : 								{
									"fontname" : "Arial",
									"fontsize" : 12.0,
									"id" : "obj-58",
									"maxclass" : "newobj",
									"numinlets" : 2,
									"numoutlets" : 2,
									"outlettype" : [ "", "" ],
									"patching_rect" : [ 253.0, 155.0, 57.0, 20.0 ],
									"text" : "zl slice 4"
								}

							}
, 							{
								"box" : 								{
									"fontname" : "Arial",
									"fontsize" : 12.0,
									"id" : "obj-57",
									"maxclass" : "newobj",
									"numinlets" : 2,
									"numoutlets" : 2,
									"outlettype" : [ "", "" ],
									"patching_rect" : [ 215.0, 128.0, 57.0, 20.0 ],
									"text" : "zl slice 4"
								}

							}
, 							{
								"box" : 								{
									"fontname" : "Arial",
									"fontsize" : 12.0,
									"id" : "obj-56",
									"maxclass" : "newobj",
									"numinlets" : 2,
									"numoutlets" : 2,
									"outlettype" : [ "", "" ],
									"patching_rect" : [ 177.0, 100.0, 57.0, 20.0 ],
									"text" : "zl slice 4"
								}

							}
, 							{
								"box" : 								{
									"comment" : "",
									"id" : "obj-62",
									"maxclass" : "inlet",
									"numinlets" : 0,
									"numoutlets" : 1,
									"outlettype" : [ "" ],
									"patching_rect" : [ 177.0, 40.0, 25.0, 25.0 ]
								}

							}
 ],
						"lines" : [ 							{
								"patchline" : 								{
									"destination" : [ "obj-57", 0 ],
									"disabled" : 0,
									"hidden" : 0,
									"source" : [ "obj-56", 1 ]
								}

							}
, 							{
								"patchline" : 								{
									"destination" : [ "obj-60", 1 ],
									"disabled" : 0,
									"hidden" : 0,
									"source" : [ "obj-56", 0 ]
								}

							}
, 							{
								"patchline" : 								{
									"destination" : [ "obj-58", 0 ],
									"disabled" : 0,
									"hidden" : 0,
									"source" : [ "obj-57", 1 ]
								}

							}
, 							{
								"patchline" : 								{
									"destination" : [ "obj-61", 1 ],
									"disabled" : 0,
									"hidden" : 0,
									"source" : [ "obj-57", 0 ]
								}

							}
, 							{
								"patchline" : 								{
									"destination" : [ "obj-1", 1 ],
									"disabled" : 0,
									"hidden" : 0,
									"source" : [ "obj-58", 0 ]
								}

							}
, 							{
								"patchline" : 								{
									"destination" : [ "obj-2", 1 ],
									"disabled" : 0,
									"hidden" : 0,
									"source" : [ "obj-58", 1 ]
								}

							}
, 							{
								"patchline" : 								{
									"destination" : [ "obj-56", 0 ],
									"disabled" : 0,
									"hidden" : 0,
									"source" : [ "obj-62", 0 ]
								}

							}
, 							{
								"patchline" : 								{
									"destination" : [ "obj-9", 0 ],
									"disabled" : 0,
									"hidden" : 0,
									"source" : [ "obj-8", 0 ]
								}

							}
 ]
					}
,
					"patching_rect" : [ 640.0, 156.0, 110.0, 20.0 ],
					"saved_object_attributes" : 					{
						"default_fontface" : 0,
						"default_fontname" : "Arial",
						"default_fontsize" : 12.0,
						"description" : "",
						"digest" : "",
						"fontface" : 0,
						"fontname" : "Arial",
						"fontsize" : 12.0,
						"globalpatchername" : "",
						"tags" : ""
					}
,
					"text" : "p partition-for-insts"
				}

			}
, 			{
				"box" : 				{
					"fontname" : "Arial",
					"fontsize" : 12.0,
					"id" : "obj-52",
					"maxclass" : "message",
					"numinlets" : 2,
					"numoutlets" : 1,
					"outlettype" : [ "" ],
					"patching_rect" : [ 968.0, 64.0, 32.5, 18.0 ],
					"text" : "12"
				}

			}
, 			{
				"box" : 				{
					"fontname" : "Arial",
					"fontsize" : 12.0,
					"id" : "obj-51",
					"maxclass" : "message",
					"numinlets" : 2,
					"numoutlets" : 1,
					"outlettype" : [ "" ],
					"patching_rect" : [ 968.0, 24.0, 32.5, 18.0 ],
					"text" : "10"
				}

			}
, 			{
				"box" : 				{
					"fontname" : "Arial",
					"fontsize" : 12.0,
					"id" : "obj-50",
					"maxclass" : "message",
					"numinlets" : 2,
					"numoutlets" : 1,
					"outlettype" : [ "" ],
					"patching_rect" : [ 892.0, 24.0, 32.5, 18.0 ],
					"text" : "7"
				}

			}
, 			{
				"box" : 				{
					"fontname" : "Arial",
					"fontsize" : 12.0,
					"id" : "obj-49",
					"maxclass" : "message",
					"numinlets" : 2,
					"numoutlets" : 1,
					"outlettype" : [ "" ],
					"patching_rect" : [ 924.5, 24.0, 32.5, 18.0 ],
					"text" : "8"
				}

			}
, 			{
				"box" : 				{
					"fontname" : "Arial",
					"fontsize" : 12.0,
					"id" : "obj-48",
					"maxclass" : "message",
					"numinlets" : 2,
					"numoutlets" : 1,
					"outlettype" : [ "" ],
					"patching_rect" : [ 864.0, 24.0, 32.5, 18.0 ],
					"text" : "4"
				}

			}
, 			{
				"box" : 				{
					"fontname" : "Arial",
					"fontsize" : 12.0,
					"id" : "obj-46",
					"maxclass" : "newobj",
					"numinlets" : 2,
					"numoutlets" : 2,
					"outlettype" : [ "", "" ],
					"patching_rect" : [ 1160.0, 96.0, 57.0, 20.0 ],
					"text" : "zl ecils 1"
				}

			}
, 			{
				"box" : 				{
					"fontname" : "Arial",
					"fontsize" : 12.0,
					"id" : "obj-43",
					"maxclass" : "number",
					"numinlets" : 1,
					"numoutlets" : 2,
					"outlettype" : [ "int", "bang" ],
					"parameter_enable" : 0,
					"patching_rect" : [ 708.0, 8.0, 50.0, 20.0 ]
				}

			}
, 			{
				"box" : 				{
					"id" : "obj-42",
					"maxclass" : "button",
					"numinlets" : 1,
					"numoutlets" : 1,
					"outlettype" : [ "bang" ],
					"patching_rect" : [ 515.0, 8.0, 20.0, 20.0 ]
				}

			}
, 			{
				"box" : 				{
					"fontname" : "Arial",
					"fontsize" : 12.0,
					"id" : "obj-40",
					"maxclass" : "newobj",
					"numinlets" : 2,
					"numoutlets" : 1,
					"outlettype" : [ "int" ],
					"patching_rect" : [ 515.0, 44.0, 32.5, 20.0 ],
					"text" : "i"
				}

			}
, 			{
				"box" : 				{
					"fontname" : "Arial",
					"fontsize" : 12.0,
					"id" : "obj-39",
					"maxclass" : "number",
					"numinlets" : 1,
					"numoutlets" : 2,
					"outlettype" : [ "int", "bang" ],
					"parameter_enable" : 0,
					"patching_rect" : [ 539.5, 8.0, 50.0, 20.0 ]
				}

			}
, 			{
				"box" : 				{
					"fontname" : "Arial",
					"fontsize" : 12.0,
					"id" : "obj-37",
					"maxclass" : "newobj",
					"numinlets" : 2,
					"numoutlets" : 2,
					"outlettype" : [ "", "" ],
					"patching_rect" : [ 640.0, 72.0, 41.0, 20.0 ],
					"text" : "zl join"
				}

			}
, 			{
				"box" : 				{
					"fontname" : "Arial",
					"fontsize" : 12.0,
					"id" : "obj-36",
					"maxclass" : "newobj",
					"numinlets" : 2,
					"numoutlets" : 2,
					"outlettype" : [ "", "" ],
					"patching_rect" : [ 515.0, 72.0, 41.0, 20.0 ],
					"text" : "zl join"
				}

			}
, 			{
				"box" : 				{
					"coll_data" : 					{
						"count" : 13,
						"data" : [ 							{
								"key" : 0,
								"value" : [ 36, 41.5, 48.863136, 49.5, 50, 51, 57, 61, 61, 78, 79.88269, 80.5, 84.5, 85, 92.5, 96 ]
							}
, 							{
								"key" : 1,
								"value" : [ 36, 36.5, 36.863136, 44.5, 47.5, 59, 61, 74.5, 76, 81, 84.201439, 86.513176, 87.5, 88.5, 91.5, 96 ]
							}
, 							{
								"key" : 2,
								"value" : [ 36, 38.5, 42.688259, 50.51318, 51.5, 55, 62.5, 64.5, 66.688255, 76.376518, 80, 80.5, 81.5, 82, 83.5, 96 ]
							}
, 							{
								"key" : 3,
								"value" : [ 36, 37, 39, 48.5, 56.5, 62, 66.5, 72.5, 73, 80.5, 80.5, 83.5, 88.019547, 89.5, 92.5, 96 ]
							}
, 							{
								"key" : 4,
								"value" : [ 36, 38, 44, 45.5, 48, 60.863136, 63, 64, 74, 75.5, 78.688255, 88, 89.5, 94, 94.5, 96 ]
							}
, 							{
								"key" : 5,
								"value" : [ 36, 41, 45.5, 47.5, 48, 54.5, 58.5, 59, 60, 75, 76.376518, 77, 82.5, 92, 95.5, 96 ]
							}
, 							{
								"key" : 6,
								"value" : [ 36, 38, 40, 45.5, 48, 50, 51.5, 73.707809, 75, 77.5, 80.5, 87, 89.5, 92, 95.5, 96 ]
							}
, 							{
								"key" : 7,
								"value" : [ 36, 40, 40, 44, 45, 58, 60, 61, 61.5, 63.5, 75, 80, 92, 92, 93.53273, 96 ]
							}
, 							{
								"key" : 8,
								"value" : [ 36, 48.5, 49, 53, 53.5, 54.5, 55, 60.863136, 63, 73.5, 74.5, 74.513176, 77, 85.5, 85.707809, 96 ]
							}
, 							{
								"key" : 9,
								"value" : [ 36, 39, 50.51318, 55.5, 61.707809, 70.5, 77, 79.5, 82.551399, 83, 85, 85.707809, 85.707809, 88, 95, 96 ]
							}
, 							{
								"key" : 10,
								"value" : [ 36, 41, 51, 59, 65, 66, 66.688255, 68, 74, 75, 76.376518, 80, 84.5, 92, 92, 96 ]
							}
, 							{
								"key" : 11,
								"value" : [ 36, 42, 48.5, 51, 58, 61.707809, 64, 67, 70.551399, 75, 78, 81.5, 84.863136, 88.5, 90.688255, 96 ]
							}
, 							{
								"key" : 12,
								"value" : [ 36, 37.5, 38, 40, 44, 52.5, 62, 65, 71.5, 72, 75.5, 81, 89, 92, 94.5, 96 ]
							}
 ]
					}
,
					"fontname" : "Arial",
					"fontsize" : 12.0,
					"id" : "obj-35",
					"maxclass" : "newobj",
					"numinlets" : 1,
					"numoutlets" : 4,
					"outlettype" : [ "", "", "", "" ],
					"patching_rect" : [ 640.0, 112.0, 124.0, 20.0 ],
					"saved_object_attributes" : 					{
						"embed" : 1
					}
,
					"text" : "coll tuned @embed 1"
				}

			}
, 			{
				"box" : 				{
					"coll_data" : 					{
						"count" : 13,
						"data" : [ 							{
								"key" : 0,
								"value" : [ 36.0, 41.309177, 48.830639, 49.533592, 50.222115, 50.816105, 57.004135, 61.029881, 61.097321, 77.980629, 79.742012, 80.494774, 84.537926, 85.029976, 92.411705, 96.0 ]
							}
, 							{
								"key" : 1,
								"value" : [ 36.0, 36.637531, 36.882038, 44.693825, 47.311798, 59.133121, 61.016369, 74.312668, 75.906044, 80.87442, 84.135757, 86.591934, 87.450256, 88.464874, 91.607719, 96.0 ]
							}
, 							{
								"key" : 2,
								"value" : [ 36.0, 38.598133, 42.752304, 50.691593, 51.591751, 55.159935, 62.317299, 64.579559, 66.705826, 76.370125, 80.036865, 80.557304, 81.50412, 81.823761, 83.25782, 96.0 ]
							}
, 							{
								"key" : 3,
								"value" : [ 36.0, 37.014362, 39.174728, 48.519901, 56.390484, 62.15704, 66.31781, 72.654587, 73.215691, 80.426117, 80.736954, 83.533455, 88.091568, 89.667793, 92.654137, 96.0 ]
							}
, 							{
								"key" : 4,
								"value" : [ 36.0, 37.901356, 44.197758, 45.283115, 47.967384, 60.810383, 62.857388, 64.125237, 74.228142, 75.720604, 78.684456, 87.818619, 89.472054, 93.876732, 94.513145, 96.0 ]
							}
, 							{
								"key" : 5,
								"value" : [ 36.0, 41.088287, 45.691158, 47.267166, 48.165394, 54.510044, 58.499573, 58.953693, 60.068062, 74.923592, 76.40683, 76.991798, 82.456039, 91.766754, 95.437393, 96.0 ]
							}
, 							{
								"key" : 6,
								"value" : [ 36.0, 38.12825, 39.761745, 45.498234, 48.142197, 49.758537, 51.488789, 73.791214, 74.801949, 77.749496, 80.541588, 86.813492, 89.703049, 92.141815, 95.71846, 96.0 ]
							}
, 							{
								"key" : 7,
								"value" : [ 36.0, 39.877972, 40.243641, 43.757088, 45.135818, 58.068977, 59.898331, 60.931824, 61.558876, 63.521561, 75.075966, 80.18528, 92.018028, 92.149223, 93.530357, 96.0 ]
							}
, 							{
								"key" : 8,
								"value" : [ 36.0, 48.284523, 48.987198, 52.927441, 53.714348, 54.317623, 54.961311, 60.735809, 63.130882, 73.279274, 74.483398, 74.717674, 77.089111, 85.402, 85.721245, 96.0 ]
							}
, 							{
								"key" : 9,
								"value" : [ 36.0, 39.196598, 50.55159, 55.490387, 61.794792, 70.487976, 76.898209, 79.316994, 82.676636, 82.986969, 85.192528, 85.605461, 85.711273, 87.895622, 94.817474, 96.0 ]
							}
, 							{
								"key" : 10,
								"value" : [ 36.0, 41.165741, 51.218063, 59.183868, 65.124466, 66.121445, 66.73111, 68.032036, 74.044159, 74.979752, 76.295937, 80.043007, 84.391975, 91.772354, 91.835144, 96.0 ]
							}
, 							{
								"key" : 11,
								"value" : [ 36.0, 42.015919, 48.338409, 51.124744, 58.069744, 61.626144, 64.080246, 67.24633, 70.666817, 75.163048, 77.910683, 81.372375, 84.812782, 88.480118, 90.741447, 96.0 ]
							}
, 							{
								"key" : 12,
								"value" : [ 36.0, 37.301529, 37.847088, 39.803413, 44.207596, 52.631134, 62.071579, 65.21785, 71.625977, 72.065834, 75.469818, 81.237366, 89.106606, 91.989265, 94.399055, 96.0 ]
							}
 ]
					}
,
					"fontname" : "Arial",
					"fontsize" : 12.0,
					"id" : "obj-34",
					"maxclass" : "newobj",
					"numinlets" : 1,
					"numoutlets" : 4,
					"outlettype" : [ "", "", "", "" ],
					"patching_rect" : [ 515.0, 112.0, 113.0, 20.0 ],
					"saved_object_attributes" : 					{
						"embed" : 1
					}
,
					"text" : "coll raw @embed 1"
				}

			}
, 			{
				"box" : 				{
					"fontname" : "Arial",
					"fontsize" : 12.0,
					"id" : "obj-32",
					"maxclass" : "flonum",
					"numinlets" : 1,
					"numoutlets" : 2,
					"outlettype" : [ "float", "bang" ],
					"parameter_enable" : 0,
					"patching_rect" : [ 108.0, 100.0, 50.0, 20.0 ]
				}

			}
, 			{
				"box" : 				{
					"id" : "obj-29",
					"maxclass" : "multislider",
					"numinlets" : 1,
					"numoutlets" : 2,
					"outlettype" : [ "", "" ],
					"parameter_enable" : 0,
					"patching_rect" : [ 1131.0, 689.5, 155.0, 55.5 ],
					"setminmax" : [ 0.0, 3.0 ],
					"setstyle" : 2
				}

			}
, 			{
				"box" : 				{
					"fontname" : "Arial",
					"fontsize" : 12.0,
					"id" : "obj-25",
					"maxclass" : "flonum",
					"numinlets" : 1,
					"numoutlets" : 2,
					"outlettype" : [ "float", "bang" ],
					"parameter_enable" : 0,
					"patching_rect" : [ 1224.0, 655.5, 50.0, 20.0 ]
				}

			}
, 			{
				"box" : 				{
					"fontname" : "Arial",
					"fontsize" : 12.0,
					"id" : "obj-23",
					"maxclass" : "newobj",
					"numinlets" : 1,
					"numoutlets" : 1,
					"outlettype" : [ "float" ],
					"patching_rect" : [ 1224.0, 624.0, 67.0, 20.0 ],
					"text" : "roughness"
				}

			}
, 			{
				"box" : 				{
					"fontname" : "Arial",
					"fontsize" : 12.0,
					"id" : "obj-21",
					"maxclass" : "number",
					"numinlets" : 1,
					"numoutlets" : 2,
					"outlettype" : [ "int", "bang" ],
					"parameter_enable" : 0,
					"patching_rect" : [ 581.5, 696.0, 50.0, 20.0 ]
				}

			}
, 			{
				"box" : 				{
					"fontname" : "Arial",
					"fontsize" : 12.0,
					"id" : "obj-22",
					"maxclass" : "newobj",
					"numinlets" : 5,
					"numoutlets" : 4,
					"outlettype" : [ "int", "", "", "int" ],
					"patching_rect" : [ 581.5, 664.0, 73.0, 20.0 ],
					"text" : "counter"
				}

			}
, 			{
				"box" : 				{
					"fontname" : "Arial",
					"fontsize" : 12.0,
					"id" : "obj-18",
					"maxclass" : "number",
					"numinlets" : 1,
					"numoutlets" : 2,
					"outlettype" : [ "int", "bang" ],
					"parameter_enable" : 0,
					"patching_rect" : [ 504.0, 696.0, 50.0, 20.0 ]
				}

			}
, 			{
				"box" : 				{
					"fontname" : "Arial",
					"fontsize" : 12.0,
					"id" : "obj-17",
					"maxclass" : "newobj",
					"numinlets" : 5,
					"numoutlets" : 4,
					"outlettype" : [ "int", "", "", "int" ],
					"patching_rect" : [ 504.0, 664.0, 73.0, 20.0 ],
					"text" : "counter"
				}

			}
, 			{
				"box" : 				{
					"fontname" : "Arial",
					"fontsize" : 12.0,
					"id" : "obj-16",
					"maxclass" : "newobj",
					"numinlets" : 1,
					"numoutlets" : 3,
					"outlettype" : [ "bang", "", "int" ],
					"patching_rect" : [ 44.0, 184.0, 46.0, 20.0 ],
					"text" : "t b l 0"
				}

			}
, 			{
				"box" : 				{
					"fontname" : "Arial",
					"fontsize" : 12.0,
					"id" : "obj-12",
					"maxclass" : "newobj",
					"numinlets" : 2,
					"numoutlets" : 2,
					"outlettype" : [ "", "" ],
					"patching_rect" : [ 205.0, 728.0, 53.0, 20.0 ],
					"text" : "zl group"
				}

			}
, 			{
				"box" : 				{
					"fontname" : "Arial",
					"fontsize" : 12.0,
					"id" : "obj-11",
					"maxclass" : "newobj",
					"numinlets" : 1,
					"numoutlets" : 4,
					"outlettype" : [ "", "", "", "" ],
					"patching_rect" : [ 344.0, 702.0, 107.0, 20.0 ],
					"saved_object_attributes" : 					{
						"embed" : 0
					}
,
					"text" : "coll partials-midi 1"
				}

			}
, 			{
				"box" : 				{
					"fontname" : "Arial",
					"fontsize" : 12.0,
					"id" : "obj-10",
					"maxclass" : "newobj",
					"numinlets" : 1,
					"numoutlets" : 4,
					"outlettype" : [ "", "", "", "" ],
					"patching_rect" : [ 205.0, 702.0, 113.0, 20.0 ],
					"saved_object_attributes" : 					{
						"embed" : 0
					}
,
					"text" : "coll quarter-tones 1"
				}

			}
, 			{
				"box" : 				{
					"fontname" : "Arial",
					"fontsize" : 12.0,
					"id" : "obj-9",
					"maxclass" : "newobj",
					"numinlets" : 2,
					"numoutlets" : 1,
					"outlettype" : [ "int" ],
					"patching_rect" : [ 205.0, 670.0, 32.5, 20.0 ],
					"text" : "i"
				}

			}
, 			{
				"box" : 				{
					"fontname" : "Arial",
					"fontsize" : 12.0,
					"id" : "obj-7",
					"maxclass" : "newobj",
					"numinlets" : 2,
					"numoutlets" : 1,
					"outlettype" : [ "int" ],
					"patching_rect" : [ 256.0, 670.0, 32.5, 20.0 ],
					"text" : "i"
				}

			}
, 			{
				"box" : 				{
					"fontname" : "Arial",
					"fontsize" : 12.0,
					"id" : "obj-6",
					"maxclass" : "newobj",
					"numinlets" : 3,
					"numoutlets" : 3,
					"outlettype" : [ "bang", "bang", "" ],
					"patching_rect" : [ 205.0, 632.0, 46.0, 20.0 ],
					"text" : "sel 0 1"
				}

			}
, 			{
				"box" : 				{
					"fontname" : "Arial",
					"fontsize" : 12.0,
					"id" : "obj-3",
					"maxclass" : "newobj",
					"numinlets" : 1,
					"numoutlets" : 1,
					"outlettype" : [ "bang" ],
					"patching_rect" : [ 640.0, 274.5, 60.0, 20.0 ],
					"text" : "loadbang"
				}

			}
, 			{
				"box" : 				{
					"fontname" : "Arial",
					"fontsize" : 12.0,
					"id" : "obj-14",
					"maxclass" : "newobj",
					"numinlets" : 1,
					"numoutlets" : 3,
					"outlettype" : [ "", "list", "list" ],
					"patcher" : 					{
						"fileversion" : 1,
						"appversion" : 						{
							"major" : 6,
							"minor" : 0,
							"revision" : 8
						}
,
						"rect" : [ 25.0, 69.0, 514.0, 683.0 ],
						"bglocked" : 0,
						"openinpresentation" : 0,
						"default_fontsize" : 12.0,
						"default_fontface" : 0,
						"default_fontname" : "Arial",
						"gridonopen" : 0,
						"gridsize" : [ 8.0, 8.0 ],
						"gridsnaponopen" : 0,
						"statusbarvisible" : 2,
						"toolbarvisible" : 1,
						"boxanimatetime" : 200,
						"imprint" : 0,
						"enablehscroll" : 1,
						"enablevscroll" : 1,
						"devicewidth" : 0.0,
						"description" : "",
						"digest" : "",
						"tags" : "",
						"boxes" : [ 							{
								"box" : 								{
									"fontname" : "Arial",
									"fontsize" : 12.0,
									"id" : "obj-152",
									"maxclass" : "newobj",
									"numinlets" : 1,
									"numoutlets" : 1,
									"outlettype" : [ "list" ],
									"patching_rect" : [ 167.0, 379.0, 58.0, 20.0 ],
									"text" : "listfunnel"
								}

							}
, 							{
								"box" : 								{
									"fontname" : "Arial",
									"fontsize" : 12.0,
									"id" : "obj-151",
									"maxclass" : "newobj",
									"numinlets" : 2,
									"numoutlets" : 2,
									"outlettype" : [ "", "" ],
									"patching_rect" : [ 167.0, 283.0, 53.0, 20.0 ],
									"text" : "zl group"
								}

							}
, 							{
								"box" : 								{
									"fontname" : "Arial",
									"fontsize" : 12.0,
									"id" : "obj-150",
									"maxclass" : "newobj",
									"numinlets" : 2,
									"numoutlets" : 1,
									"outlettype" : [ "float" ],
									"patching_rect" : [ 167.0, 250.0, 32.5, 20.0 ],
									"text" : "* 1."
								}

							}
, 							{
								"box" : 								{
									"fontname" : "Arial",
									"fontsize" : 12.0,
									"id" : "obj-149",
									"maxclass" : "newobj",
									"numinlets" : 1,
									"numoutlets" : 1,
									"outlettype" : [ "" ],
									"patching_rect" : [ 50.0, 313.0, 47.0, 20.0 ],
									"text" : "ftom 1."
								}

							}
, 							{
								"box" : 								{
									"fontname" : "Arial",
									"fontsize" : 12.0,
									"id" : "obj-145",
									"maxclass" : "newobj",
									"numinlets" : 1,
									"numoutlets" : 1,
									"outlettype" : [ "list" ],
									"patching_rect" : [ 50.0, 379.0, 58.0, 20.0 ],
									"text" : "listfunnel"
								}

							}
, 							{
								"box" : 								{
									"fontname" : "Arial",
									"fontsize" : 12.0,
									"id" : "obj-144",
									"maxclass" : "newobj",
									"numinlets" : 1,
									"numoutlets" : 3,
									"outlettype" : [ "bang", "", "clear" ],
									"patching_rect" : [ 50.0, 100.0, 59.0, 20.0 ],
									"text" : "t b l clear"
								}

							}
, 							{
								"box" : 								{
									"fontname" : "Arial",
									"fontsize" : 12.0,
									"id" : "obj-143",
									"maxclass" : "newobj",
									"numinlets" : 2,
									"numoutlets" : 2,
									"outlettype" : [ "", "" ],
									"patching_rect" : [ 50.0, 283.0, 53.0, 20.0 ],
									"text" : "zl group"
								}

							}
, 							{
								"box" : 								{
									"fontname" : "Arial",
									"fontsize" : 12.0,
									"id" : "obj-141",
									"maxclass" : "newobj",
									"numinlets" : 2,
									"numoutlets" : 3,
									"outlettype" : [ "bang", "bang", "int" ],
									"patching_rect" : [ 70.0, 218.0, 46.0, 20.0 ],
									"text" : "uzi 8"
								}

							}
, 							{
								"box" : 								{
									"fontname" : "Arial",
									"fontsize" : 12.0,
									"id" : "obj-140",
									"maxclass" : "newobj",
									"numinlets" : 2,
									"numoutlets" : 1,
									"outlettype" : [ "float" ],
									"patching_rect" : [ 97.0, 250.0, 32.5, 20.0 ],
									"text" : "* 1."
								}

							}
, 							{
								"box" : 								{
									"fontname" : "Arial",
									"fontsize" : 12.0,
									"id" : "obj-139",
									"maxclass" : "newobj",
									"numinlets" : 1,
									"numoutlets" : 2,
									"outlettype" : [ "bang", "float" ],
									"patching_rect" : [ 70.0, 190.0, 32.5, 20.0 ],
									"text" : "t b f"
								}

							}
, 							{
								"box" : 								{
									"fontname" : "Arial",
									"fontsize" : 12.0,
									"id" : "obj-138",
									"maxclass" : "newobj",
									"numinlets" : 2,
									"numoutlets" : 1,
									"outlettype" : [ "float" ],
									"patching_rect" : [ 70.0, 163.0, 49.0, 20.0 ],
									"text" : "* 13.75"
								}

							}
, 							{
								"box" : 								{
									"fontname" : "Arial",
									"fontsize" : 12.0,
									"id" : "obj-137",
									"maxclass" : "newobj",
									"numinlets" : 2,
									"numoutlets" : 2,
									"outlettype" : [ "", "" ],
									"patching_rect" : [ 70.0, 131.0, 49.0, 20.0 ],
									"text" : "zl iter 1"
								}

							}
, 							{
								"box" : 								{
									"comment" : "",
									"id" : "obj-9",
									"maxclass" : "inlet",
									"numinlets" : 0,
									"numoutlets" : 1,
									"outlettype" : [ "" ],
									"patching_rect" : [ 50.0, 40.0, 25.0, 25.0 ]
								}

							}
, 							{
								"box" : 								{
									"comment" : "",
									"id" : "obj-10",
									"maxclass" : "outlet",
									"numinlets" : 1,
									"numoutlets" : 0,
									"patching_rect" : [ 16.0, 459.0, 25.0, 25.0 ]
								}

							}
, 							{
								"box" : 								{
									"comment" : "",
									"id" : "obj-11",
									"maxclass" : "outlet",
									"numinlets" : 1,
									"numoutlets" : 0,
									"patching_rect" : [ 90.0, 459.0, 25.0, 25.0 ]
								}

							}
, 							{
								"box" : 								{
									"comment" : "",
									"id" : "obj-13",
									"maxclass" : "outlet",
									"numinlets" : 1,
									"numoutlets" : 0,
									"patching_rect" : [ 167.0, 459.0, 25.0, 25.0 ]
								}

							}
 ],
						"lines" : [ 							{
								"patchline" : 								{
									"destination" : [ "obj-138", 0 ],
									"disabled" : 0,
									"hidden" : 0,
									"source" : [ "obj-137", 0 ]
								}

							}
, 							{
								"patchline" : 								{
									"destination" : [ "obj-150", 1 ],
									"disabled" : 0,
									"hidden" : 0,
									"source" : [ "obj-137", 0 ]
								}

							}
, 							{
								"patchline" : 								{
									"destination" : [ "obj-139", 0 ],
									"disabled" : 0,
									"hidden" : 0,
									"source" : [ "obj-138", 0 ]
								}

							}
, 							{
								"patchline" : 								{
									"destination" : [ "obj-140", 1 ],
									"disabled" : 0,
									"hidden" : 0,
									"source" : [ "obj-139", 1 ]
								}

							}
, 							{
								"patchline" : 								{
									"destination" : [ "obj-141", 0 ],
									"disabled" : 0,
									"hidden" : 0,
									"source" : [ "obj-139", 0 ]
								}

							}
, 							{
								"patchline" : 								{
									"destination" : [ "obj-143", 0 ],
									"disabled" : 0,
									"hidden" : 0,
									"source" : [ "obj-140", 0 ]
								}

							}
, 							{
								"patchline" : 								{
									"destination" : [ "obj-140", 0 ],
									"disabled" : 0,
									"hidden" : 0,
									"source" : [ "obj-141", 2 ]
								}

							}
, 							{
								"patchline" : 								{
									"destination" : [ "obj-150", 0 ],
									"disabled" : 0,
									"hidden" : 0,
									"source" : [ "obj-141", 2 ]
								}

							}
, 							{
								"patchline" : 								{
									"destination" : [ "obj-149", 0 ],
									"disabled" : 0,
									"hidden" : 0,
									"source" : [ "obj-143", 0 ]
								}

							}
, 							{
								"patchline" : 								{
									"destination" : [ "obj-11", 0 ],
									"disabled" : 0,
									"hidden" : 0,
									"source" : [ "obj-144", 2 ]
								}

							}
, 							{
								"patchline" : 								{
									"destination" : [ "obj-13", 0 ],
									"disabled" : 0,
									"hidden" : 0,
									"source" : [ "obj-144", 2 ]
								}

							}
, 							{
								"patchline" : 								{
									"destination" : [ "obj-137", 0 ],
									"disabled" : 0,
									"hidden" : 0,
									"source" : [ "obj-144", 1 ]
								}

							}
, 							{
								"patchline" : 								{
									"destination" : [ "obj-143", 0 ],
									"disabled" : 0,
									"hidden" : 0,
									"source" : [ "obj-144", 0 ]
								}

							}
, 							{
								"patchline" : 								{
									"destination" : [ "obj-151", 0 ],
									"disabled" : 0,
									"hidden" : 0,
									"source" : [ "obj-144", 0 ]
								}

							}
, 							{
								"patchline" : 								{
									"destination" : [ "obj-11", 0 ],
									"disabled" : 0,
									"hidden" : 0,
									"source" : [ "obj-145", 0 ]
								}

							}
, 							{
								"patchline" : 								{
									"destination" : [ "obj-10", 0 ],
									"disabled" : 0,
									"hidden" : 0,
									"source" : [ "obj-149", 0 ]
								}

							}
, 							{
								"patchline" : 								{
									"destination" : [ "obj-145", 0 ],
									"disabled" : 0,
									"hidden" : 0,
									"source" : [ "obj-149", 0 ]
								}

							}
, 							{
								"patchline" : 								{
									"destination" : [ "obj-151", 0 ],
									"disabled" : 0,
									"hidden" : 0,
									"source" : [ "obj-150", 0 ]
								}

							}
, 							{
								"patchline" : 								{
									"destination" : [ "obj-152", 0 ],
									"disabled" : 0,
									"hidden" : 0,
									"source" : [ "obj-151", 0 ]
								}

							}
, 							{
								"patchline" : 								{
									"destination" : [ "obj-13", 0 ],
									"disabled" : 0,
									"hidden" : 0,
									"source" : [ "obj-152", 0 ]
								}

							}
, 							{
								"patchline" : 								{
									"destination" : [ "obj-144", 0 ],
									"disabled" : 0,
									"hidden" : 0,
									"source" : [ "obj-9", 0 ]
								}

							}
 ]
					}
,
					"patching_rect" : [ 453.0, 336.0, 93.0, 20.0 ],
					"saved_object_attributes" : 					{
						"default_fontface" : 0,
						"default_fontname" : "Arial",
						"default_fontsize" : 12.0,
						"description" : "",
						"digest" : "",
						"fontface" : 0,
						"fontname" : "Arial",
						"fontsize" : 12.0,
						"globalpatchername" : "",
						"tags" : ""
					}
,
					"text" : "p make-partials"
				}

			}
, 			{
				"box" : 				{
					"fontname" : "Arial",
					"fontsize" : 12.0,
					"id" : "obj-8",
					"maxclass" : "newobj",
					"numinlets" : 1,
					"numoutlets" : 2,
					"outlettype" : [ "", "clear" ],
					"patcher" : 					{
						"fileversion" : 1,
						"appversion" : 						{
							"major" : 6,
							"minor" : 0,
							"revision" : 8
						}
,
						"rect" : [ 25.0, 69.0, 640.0, 480.0 ],
						"bglocked" : 0,
						"openinpresentation" : 0,
						"default_fontsize" : 12.0,
						"default_fontface" : 0,
						"default_fontname" : "Arial",
						"gridonopen" : 0,
						"gridsize" : [ 8.0, 8.0 ],
						"gridsnaponopen" : 0,
						"statusbarvisible" : 2,
						"toolbarvisible" : 1,
						"boxanimatetime" : 200,
						"imprint" : 0,
						"enablehscroll" : 1,
						"enablevscroll" : 1,
						"devicewidth" : 0.0,
						"description" : "",
						"digest" : "",
						"tags" : "",
						"boxes" : [ 							{
								"box" : 								{
									"fontname" : "Arial",
									"fontsize" : 12.0,
									"id" : "obj-148",
									"maxclass" : "newobj",
									"numinlets" : 1,
									"numoutlets" : 2,
									"outlettype" : [ "bang", "clear" ],
									"patching_rect" : [ 50.0, 100.0, 53.0, 20.0 ],
									"text" : "t b clear"
								}

							}
, 							{
								"box" : 								{
									"fontname" : "Arial",
									"fontsize" : 12.0,
									"id" : "obj-133",
									"maxclass" : "newobj",
									"numinlets" : 1,
									"numoutlets" : 1,
									"outlettype" : [ "list" ],
									"patching_rect" : [ 77.0, 283.0, 58.0, 20.0 ],
									"text" : "listfunnel"
								}

							}
, 							{
								"box" : 								{
									"fontname" : "Arial",
									"fontsize" : 12.0,
									"id" : "obj-131",
									"maxclass" : "newobj",
									"numinlets" : 2,
									"numoutlets" : 2,
									"outlettype" : [ "", "" ],
									"patching_rect" : [ 77.0, 249.0, 43.0, 20.0 ],
									"text" : "zl sort"
								}

							}
, 							{
								"box" : 								{
									"fontname" : "Arial",
									"fontsize" : 12.0,
									"id" : "obj-130",
									"maxclass" : "newobj",
									"numinlets" : 2,
									"numoutlets" : 2,
									"outlettype" : [ "", "" ],
									"patching_rect" : [ 77.0, 217.0, 53.0, 20.0 ],
									"text" : "zl group"
								}

							}
, 							{
								"box" : 								{
									"fontname" : "Arial",
									"fontsize" : 12.0,
									"id" : "obj-129",
									"maxclass" : "newobj",
									"numinlets" : 2,
									"numoutlets" : 1,
									"outlettype" : [ "float" ],
									"patching_rect" : [ 98.0, 185.0, 38.0, 20.0 ],
									"text" : "+ 0.5"
								}

							}
, 							{
								"box" : 								{
									"fontname" : "Arial",
									"fontsize" : 12.0,
									"id" : "obj-127",
									"maxclass" : "newobj",
									"numinlets" : 2,
									"numoutlets" : 1,
									"outlettype" : [ "int" ],
									"patching_rect" : [ 77.0, 156.0, 34.0, 20.0 ],
									"text" : "+ 35"
								}

							}
, 							{
								"box" : 								{
									"fontname" : "Arial",
									"fontsize" : 12.0,
									"id" : "obj-125",
									"maxclass" : "newobj",
									"numinlets" : 2,
									"numoutlets" : 3,
									"outlettype" : [ "bang", "bang", "int" ],
									"patching_rect" : [ 50.0, 129.0, 46.0, 20.0 ],
									"text" : "uzi 61"
								}

							}
, 							{
								"box" : 								{
									"comment" : "",
									"id" : "obj-5",
									"maxclass" : "inlet",
									"numinlets" : 0,
									"numoutlets" : 1,
									"outlettype" : [ "bang" ],
									"patching_rect" : [ 50.0, 40.0, 25.0, 25.0 ]
								}

							}
, 							{
								"box" : 								{
									"comment" : "",
									"id" : "obj-6",
									"maxclass" : "outlet",
									"numinlets" : 1,
									"numoutlets" : 0,
									"patching_rect" : [ 32.0, 363.0, 25.0, 25.0 ]
								}

							}
, 							{
								"box" : 								{
									"comment" : "",
									"id" : "obj-7",
									"maxclass" : "outlet",
									"numinlets" : 1,
									"numoutlets" : 0,
									"patching_rect" : [ 200.0, 363.0, 25.0, 25.0 ]
								}

							}
 ],
						"lines" : [ 							{
								"patchline" : 								{
									"destination" : [ "obj-127", 0 ],
									"disabled" : 0,
									"hidden" : 0,
									"source" : [ "obj-125", 2 ]
								}

							}
, 							{
								"patchline" : 								{
									"destination" : [ "obj-130", 0 ],
									"disabled" : 0,
									"hidden" : 0,
									"source" : [ "obj-125", 1 ]
								}

							}
, 							{
								"patchline" : 								{
									"destination" : [ "obj-129", 0 ],
									"disabled" : 0,
									"hidden" : 0,
									"source" : [ "obj-127", 0 ]
								}

							}
, 							{
								"patchline" : 								{
									"destination" : [ "obj-130", 0 ],
									"disabled" : 0,
									"hidden" : 0,
									"source" : [ "obj-127", 0 ]
								}

							}
, 							{
								"patchline" : 								{
									"destination" : [ "obj-130", 0 ],
									"disabled" : 0,
									"hidden" : 0,
									"source" : [ "obj-129", 0 ]
								}

							}
, 							{
								"patchline" : 								{
									"destination" : [ "obj-131", 0 ],
									"disabled" : 0,
									"hidden" : 0,
									"source" : [ "obj-130", 0 ]
								}

							}
, 							{
								"patchline" : 								{
									"destination" : [ "obj-133", 0 ],
									"disabled" : 0,
									"hidden" : 0,
									"source" : [ "obj-131", 0 ]
								}

							}
, 							{
								"patchline" : 								{
									"destination" : [ "obj-6", 0 ],
									"disabled" : 0,
									"hidden" : 0,
									"source" : [ "obj-131", 0 ]
								}

							}
, 							{
								"patchline" : 								{
									"destination" : [ "obj-7", 0 ],
									"disabled" : 0,
									"hidden" : 0,
									"source" : [ "obj-133", 0 ]
								}

							}
, 							{
								"patchline" : 								{
									"destination" : [ "obj-125", 0 ],
									"disabled" : 0,
									"hidden" : 0,
									"source" : [ "obj-148", 0 ]
								}

							}
, 							{
								"patchline" : 								{
									"destination" : [ "obj-7", 0 ],
									"disabled" : 0,
									"hidden" : 0,
									"source" : [ "obj-148", 1 ]
								}

							}
, 							{
								"patchline" : 								{
									"destination" : [ "obj-148", 0 ],
									"disabled" : 0,
									"hidden" : 0,
									"source" : [ "obj-5", 0 ]
								}

							}
 ]
					}
,
					"patching_rect" : [ 225.0, 336.0, 125.0, 20.0 ],
					"saved_object_attributes" : 					{
						"default_fontface" : 0,
						"default_fontname" : "Arial",
						"default_fontsize" : 12.0,
						"description" : "",
						"digest" : "",
						"fontface" : 0,
						"fontname" : "Arial",
						"fontsize" : 12.0,
						"globalpatchername" : "",
						"tags" : ""
					}
,
					"text" : "p make-quarter-tones"
				}

			}
, 			{
				"box" : 				{
					"fontname" : "Arial",
					"fontsize" : 12.0,
					"id" : "obj-4",
					"maxclass" : "newobj",
					"numinlets" : 2,
					"numoutlets" : 1,
					"outlettype" : [ "" ],
					"patcher" : 					{
						"fileversion" : 1,
						"appversion" : 						{
							"major" : 6,
							"minor" : 0,
							"revision" : 8
						}
,
						"rect" : [ 25.0, 69.0, 385.0, 669.0 ],
						"bglocked" : 0,
						"openinpresentation" : 0,
						"default_fontsize" : 12.0,
						"default_fontface" : 0,
						"default_fontname" : "Arial",
						"gridonopen" : 0,
						"gridsize" : [ 8.0, 8.0 ],
						"gridsnaponopen" : 0,
						"statusbarvisible" : 2,
						"toolbarvisible" : 1,
						"boxanimatetime" : 200,
						"imprint" : 0,
						"enablehscroll" : 1,
						"enablevscroll" : 1,
						"devicewidth" : 0.0,
						"description" : "",
						"digest" : "",
						"tags" : "",
						"boxes" : [ 							{
								"box" : 								{
									"comment" : "",
									"id" : "obj-2",
									"maxclass" : "inlet",
									"numinlets" : 0,
									"numoutlets" : 1,
									"outlettype" : [ "float" ],
									"patching_rect" : [ 288.0, 40.0, 25.0, 25.0 ]
								}

							}
, 							{
								"box" : 								{
									"fontname" : "Arial",
									"fontsize" : 12.0,
									"id" : "obj-123",
									"maxclass" : "newobj",
									"numinlets" : 4,
									"numoutlets" : 2,
									"outlettype" : [ "", "" ],
									"patching_rect" : [ 101.5, 360.0, 76.0, 20.0 ],
									"text" : "eco.partition"
								}

							}
, 							{
								"box" : 								{
									"fontname" : "Arial",
									"fontsize" : 12.0,
									"id" : "obj-62",
									"maxclass" : "newobj",
									"numinlets" : 2,
									"numoutlets" : 2,
									"outlettype" : [ "", "" ],
									"patching_rect" : [ 101.5, 452.0, 42.0, 20.0 ],
									"text" : "zl thin"
								}

							}
, 							{
								"box" : 								{
									"fontname" : "Arial",
									"fontsize" : 12.0,
									"id" : "obj-60",
									"maxclass" : "newobj",
									"numinlets" : 2,
									"numoutlets" : 1,
									"outlettype" : [ "float" ],
									"patching_rect" : [ 140.75, 320.0, 32.5, 20.0 ],
									"text" : "+ 0."
								}

							}
, 							{
								"box" : 								{
									"fontname" : "Arial",
									"fontsize" : 12.0,
									"id" : "obj-57",
									"maxclass" : "newobj",
									"numinlets" : 1,
									"numoutlets" : 2,
									"outlettype" : [ "float", "float" ],
									"patching_rect" : [ 140.75, 280.0, 76.0, 20.0 ],
									"text" : "unpack 0. 0."
								}

							}
, 							{
								"box" : 								{
									"fontname" : "Arial",
									"fontsize" : 12.0,
									"id" : "obj-47",
									"maxclass" : "newobj",
									"numinlets" : 2,
									"numoutlets" : 2,
									"outlettype" : [ "", "" ],
									"patching_rect" : [ 101.5, 408.0, 53.0, 20.0 ],
									"text" : "zl group"
								}

							}
, 							{
								"box" : 								{
									"fontname" : "Arial",
									"fontsize" : 12.0,
									"id" : "obj-38",
									"maxclass" : "message",
									"numinlets" : 2,
									"numoutlets" : 1,
									"outlettype" : [ "" ],
									"patching_rect" : [ 101.5, 280.0, 32.5, 18.0 ],
									"text" : "5"
								}

							}
, 							{
								"box" : 								{
									"fontname" : "Arial",
									"fontsize" : 12.0,
									"id" : "obj-36",
									"maxclass" : "newobj",
									"numinlets" : 1,
									"numoutlets" : 2,
									"outlettype" : [ "bang", "" ],
									"patching_rect" : [ 101.5, 249.0, 32.5, 20.0 ],
									"text" : "t b l"
								}

							}
, 							{
								"box" : 								{
									"fontname" : "Arial",
									"fontsize" : 12.0,
									"id" : "obj-34",
									"maxclass" : "newobj",
									"numinlets" : 2,
									"numoutlets" : 2,
									"outlettype" : [ "", "" ],
									"patching_rect" : [ 101.5, 216.0, 49.0, 20.0 ],
									"text" : "zl iter 2"
								}

							}
, 							{
								"box" : 								{
									"fontname" : "Arial",
									"fontsize" : 12.0,
									"id" : "obj-33",
									"maxclass" : "newobj",
									"numinlets" : 2,
									"numoutlets" : 2,
									"outlettype" : [ "", "" ],
									"patching_rect" : [ 101.5, 192.0, 45.0, 20.0 ],
									"text" : "zl lace"
								}

							}
, 							{
								"box" : 								{
									"fontname" : "Arial",
									"fontsize" : 12.0,
									"id" : "obj-30",
									"maxclass" : "newobj",
									"numinlets" : 1,
									"numoutlets" : 4,
									"outlettype" : [ "bang", "", "", "int" ],
									"patching_rect" : [ 50.0, 100.0, 59.5, 20.0 ],
									"text" : "t b l l 0"
								}

							}
, 							{
								"box" : 								{
									"fontname" : "Arial",
									"fontsize" : 12.0,
									"id" : "obj-29",
									"maxclass" : "newobj",
									"numinlets" : 2,
									"numoutlets" : 2,
									"outlettype" : [ "", "" ],
									"patching_rect" : [ 169.5, 128.0, 57.0, 20.0 ],
									"text" : "zl ecils 1"
								}

							}
, 							{
								"box" : 								{
									"fontname" : "Arial",
									"fontsize" : 12.0,
									"id" : "obj-28",
									"maxclass" : "newobj",
									"numinlets" : 2,
									"numoutlets" : 2,
									"outlettype" : [ "", "" ],
									"patching_rect" : [ 63.5, 128.0, 57.0, 20.0 ],
									"text" : "zl slice 1"
								}

							}
, 							{
								"box" : 								{
									"fontname" : "Arial",
									"fontsize" : 12.0,
									"id" : "obj-27",
									"maxclass" : "newobj",
									"numinlets" : 2,
									"numoutlets" : 1,
									"outlettype" : [ "" ],
									"patching_rect" : [ 101.5, 155.0, 87.0, 20.0 ],
									"text" : "vexpr $f1 - $f2"
								}

							}
, 							{
								"box" : 								{
									"comment" : "",
									"id" : "obj-1",
									"maxclass" : "inlet",
									"numinlets" : 0,
									"numoutlets" : 1,
									"outlettype" : [ "" ],
									"patching_rect" : [ 50.0, 40.0, 25.0, 25.0 ]
								}

							}
, 							{
								"box" : 								{
									"comment" : "",
									"id" : "obj-3",
									"maxclass" : "outlet",
									"numinlets" : 1,
									"numoutlets" : 0,
									"patching_rect" : [ 101.5, 532.0, 25.0, 25.0 ]
								}

							}
 ],
						"lines" : [ 							{
								"patchline" : 								{
									"destination" : [ "obj-30", 0 ],
									"disabled" : 0,
									"hidden" : 0,
									"source" : [ "obj-1", 0 ]
								}

							}
, 							{
								"patchline" : 								{
									"destination" : [ "obj-47", 0 ],
									"disabled" : 0,
									"hidden" : 0,
									"source" : [ "obj-123", 0 ]
								}

							}
, 							{
								"patchline" : 								{
									"destination" : [ "obj-123", 3 ],
									"disabled" : 0,
									"hidden" : 0,
									"source" : [ "obj-2", 0 ]
								}

							}
, 							{
								"patchline" : 								{
									"destination" : [ "obj-33", 0 ],
									"disabled" : 0,
									"hidden" : 0,
									"source" : [ "obj-27", 0 ]
								}

							}
, 							{
								"patchline" : 								{
									"destination" : [ "obj-27", 0 ],
									"disabled" : 0,
									"hidden" : 0,
									"source" : [ "obj-28", 1 ]
								}

							}
, 							{
								"patchline" : 								{
									"destination" : [ "obj-27", 1 ],
									"disabled" : 0,
									"hidden" : 0,
									"source" : [ "obj-29", 0 ]
								}

							}
, 							{
								"patchline" : 								{
									"destination" : [ "obj-33", 1 ],
									"disabled" : 0,
									"hidden" : 0,
									"source" : [ "obj-29", 0 ]
								}

							}
, 							{
								"patchline" : 								{
									"destination" : [ "obj-28", 0 ],
									"disabled" : 0,
									"hidden" : 0,
									"source" : [ "obj-30", 1 ]
								}

							}
, 							{
								"patchline" : 								{
									"destination" : [ "obj-29", 0 ],
									"disabled" : 0,
									"hidden" : 0,
									"source" : [ "obj-30", 2 ]
								}

							}
, 							{
								"patchline" : 								{
									"destination" : [ "obj-47", 0 ],
									"disabled" : 0,
									"hidden" : 0,
									"source" : [ "obj-30", 0 ]
								}

							}
, 							{
								"patchline" : 								{
									"destination" : [ "obj-34", 0 ],
									"disabled" : 0,
									"hidden" : 0,
									"source" : [ "obj-33", 0 ]
								}

							}
, 							{
								"patchline" : 								{
									"destination" : [ "obj-36", 0 ],
									"disabled" : 0,
									"hidden" : 0,
									"source" : [ "obj-34", 0 ]
								}

							}
, 							{
								"patchline" : 								{
									"destination" : [ "obj-38", 0 ],
									"disabled" : 0,
									"hidden" : 0,
									"source" : [ "obj-36", 0 ]
								}

							}
, 							{
								"patchline" : 								{
									"destination" : [ "obj-57", 0 ],
									"disabled" : 0,
									"hidden" : 0,
									"source" : [ "obj-36", 1 ]
								}

							}
, 							{
								"patchline" : 								{
									"destination" : [ "obj-123", 0 ],
									"disabled" : 0,
									"hidden" : 0,
									"source" : [ "obj-38", 0 ]
								}

							}
, 							{
								"patchline" : 								{
									"destination" : [ "obj-62", 0 ],
									"disabled" : 0,
									"hidden" : 0,
									"source" : [ "obj-47", 0 ]
								}

							}
, 							{
								"patchline" : 								{
									"destination" : [ "obj-123", 1 ],
									"disabled" : 0,
									"hidden" : 0,
									"source" : [ "obj-57", 1 ]
								}

							}
, 							{
								"patchline" : 								{
									"destination" : [ "obj-60", 1 ],
									"disabled" : 0,
									"hidden" : 0,
									"source" : [ "obj-57", 1 ]
								}

							}
, 							{
								"patchline" : 								{
									"destination" : [ "obj-60", 0 ],
									"disabled" : 0,
									"hidden" : 0,
									"source" : [ "obj-57", 0 ]
								}

							}
, 							{
								"patchline" : 								{
									"destination" : [ "obj-123", 2 ],
									"disabled" : 0,
									"hidden" : 0,
									"source" : [ "obj-60", 0 ]
								}

							}
, 							{
								"patchline" : 								{
									"destination" : [ "obj-3", 0 ],
									"disabled" : 0,
									"hidden" : 0,
									"source" : [ "obj-62", 0 ]
								}

							}
 ]
					}
,
					"patching_rect" : [ 44.0, 144.0, 83.0, 20.0 ],
					"saved_object_attributes" : 					{
						"default_fontface" : 0,
						"default_fontname" : "Arial",
						"default_fontsize" : 12.0,
						"description" : "",
						"digest" : "",
						"fontface" : 0,
						"fontname" : "Arial",
						"fontsize" : 12.0,
						"globalpatchername" : "",
						"tags" : ""
					}
,
					"text" : "p subpartition"
				}

			}
, 			{
				"box" : 				{
					"fontname" : "Arial",
					"fontsize" : 12.0,
					"id" : "obj-185",
					"maxclass" : "message",
					"numinlets" : 2,
					"numoutlets" : 1,
					"outlettype" : [ "" ],
					"patching_rect" : [ 1007.0, 8.0, 403.0, 18.0 ],
					"text" : "36 38 40 45.5 48 50 51.5 73.707809 75 77.5 80.5 87 89.5 92 95.5 96"
				}

			}
, 			{
				"box" : 				{
					"fontname" : "Arial",
					"fontsize" : 12.0,
					"id" : "obj-173",
					"maxclass" : "newobj",
					"numinlets" : 2,
					"numoutlets" : 2,
					"outlettype" : [ "", "" ],
					"patching_rect" : [ 205.0, 600.0, 57.0, 20.0 ],
					"text" : "zl slice 1"
				}

			}
, 			{
				"box" : 				{
					"fontname" : "Arial",
					"fontsize" : 12.0,
					"id" : "obj-172",
					"maxclass" : "newobj",
					"numinlets" : 2,
					"numoutlets" : 2,
					"outlettype" : [ "", "" ],
					"patching_rect" : [ 181.0, 575.5, 43.0, 20.0 ],
					"text" : "zl sort"
				}

			}
, 			{
				"box" : 				{
					"fontname" : "Arial",
					"fontsize" : 12.0,
					"id" : "obj-171",
					"maxclass" : "newobj",
					"numinlets" : 2,
					"numoutlets" : 1,
					"outlettype" : [ "" ],
					"patching_rect" : [ 181.0, 520.0, 63.0, 20.0 ],
					"text" : "pack 0. 0."
				}

			}
, 			{
				"box" : 				{
					"fontname" : "Arial",
					"fontsize" : 12.0,
					"id" : "obj-170",
					"maxclass" : "newobj",
					"numinlets" : 2,
					"numoutlets" : 1,
					"outlettype" : [ "" ],
					"patching_rect" : [ 181.0, 552.0, 202.0, 20.0 ],
					"text" : "vexpr abs($f1 - $f2) @scalarmode 1"
				}

			}
, 			{
				"box" : 				{
					"fontname" : "Arial",
					"fontsize" : 12.0,
					"id" : "obj-165",
					"maxclass" : "newobj",
					"numinlets" : 2,
					"numoutlets" : 2,
					"outlettype" : [ "", "" ],
					"patching_rect" : [ 294.0, 439.5, 57.0, 20.0 ],
					"text" : "zl slice 1"
				}

			}
, 			{
				"box" : 				{
					"fontname" : "Arial",
					"fontsize" : 12.0,
					"id" : "obj-166",
					"maxclass" : "newobj",
					"numinlets" : 2,
					"numoutlets" : 2,
					"outlettype" : [ "", "" ],
					"patching_rect" : [ 270.0, 415.0, 43.0, 20.0 ],
					"text" : "zl sort"
				}

			}
, 			{
				"box" : 				{
					"fontname" : "Arial",
					"fontsize" : 12.0,
					"id" : "obj-169",
					"maxclass" : "newobj",
					"numinlets" : 2,
					"numoutlets" : 1,
					"outlettype" : [ "" ],
					"patching_rect" : [ 270.0, 385.0, 202.0, 20.0 ],
					"text" : "vexpr abs($f1 - $f2) @scalarmode 1"
				}

			}
, 			{
				"box" : 				{
					"fontname" : "Arial",
					"fontsize" : 12.0,
					"id" : "obj-159",
					"maxclass" : "newobj",
					"numinlets" : 2,
					"numoutlets" : 2,
					"outlettype" : [ "", "" ],
					"patching_rect" : [ 66.0, 439.5, 57.0, 20.0 ],
					"text" : "zl slice 1"
				}

			}
, 			{
				"box" : 				{
					"fontname" : "Arial",
					"fontsize" : 12.0,
					"id" : "obj-158",
					"maxclass" : "newobj",
					"numinlets" : 2,
					"numoutlets" : 2,
					"outlettype" : [ "", "" ],
					"patching_rect" : [ 42.0, 415.0, 43.0, 20.0 ],
					"text" : "zl sort"
				}

			}
, 			{
				"box" : 				{
					"fontname" : "Arial",
					"fontsize" : 12.0,
					"id" : "obj-157",
					"maxclass" : "newobj",
					"numinlets" : 1,
					"numoutlets" : 3,
					"outlettype" : [ "float", "float", "float" ],
					"patching_rect" : [ 44.0, 256.0, 46.0, 20.0 ],
					"text" : "t f f f"
				}

			}
, 			{
				"box" : 				{
					"fontname" : "Arial",
					"fontsize" : 12.0,
					"id" : "obj-155",
					"maxclass" : "newobj",
					"numinlets" : 2,
					"numoutlets" : 2,
					"outlettype" : [ "", "" ],
					"patching_rect" : [ 44.0, 216.0, 49.0, 20.0 ],
					"text" : "zl iter 1"
				}

			}
, 			{
				"box" : 				{
					"fontname" : "Arial",
					"fontsize" : 12.0,
					"id" : "obj-154",
					"maxclass" : "newobj",
					"numinlets" : 2,
					"numoutlets" : 1,
					"outlettype" : [ "" ],
					"patching_rect" : [ 42.0, 385.0, 202.0, 20.0 ],
					"text" : "vexpr abs($f1 - $f2) @scalarmode 1"
				}

			}
, 			{
				"box" : 				{
					"fontname" : "Arial",
					"fontsize" : 12.0,
					"id" : "obj-153",
					"maxclass" : "newobj",
					"numinlets" : 1,
					"numoutlets" : 4,
					"outlettype" : [ "", "", "", "" ],
					"patching_rect" : [ 411.0, 472.0, 108.0, 20.0 ],
					"saved_object_attributes" : 					{
						"embed" : 0
					}
,
					"text" : "coll partial-nums 1"
				}

			}
, 			{
				"box" : 				{
					"fontname" : "Arial",
					"fontsize" : 12.0,
					"id" : "obj-146",
					"maxclass" : "newobj",
					"numinlets" : 1,
					"numoutlets" : 4,
					"outlettype" : [ "", "", "", "" ],
					"patching_rect" : [ 294.0, 472.0, 107.0, 20.0 ],
					"saved_object_attributes" : 					{
						"embed" : 0
					}
,
					"text" : "coll partials-midi 1"
				}

			}
, 			{
				"box" : 				{
					"fontname" : "Arial",
					"fontsize" : 12.0,
					"id" : "obj-136",
					"maxclass" : "message",
					"numinlets" : 2,
					"numoutlets" : 1,
					"outlettype" : [ "" ],
					"patching_rect" : [ 453.0, 308.0, 143.0, 18.0 ],
					"text" : "5 7 11 16 10 14 22 32 48"
				}

			}
, 			{
				"box" : 				{
					"fontname" : "Arial",
					"fontsize" : 12.0,
					"id" : "obj-134",
					"maxclass" : "newobj",
					"numinlets" : 1,
					"numoutlets" : 4,
					"outlettype" : [ "", "", "", "" ],
					"patching_rect" : [ 66.0, 472.0, 113.0, 20.0 ],
					"saved_object_attributes" : 					{
						"embed" : 0
					}
,
					"text" : "coll quarter-tones 1"
				}

			}
, 			{
				"box" : 				{
					"id" : "obj-126",
					"maxclass" : "button",
					"numinlets" : 1,
					"numoutlets" : 1,
					"outlettype" : [ "bang" ],
					"patching_rect" : [ 225.0, 308.0, 20.0, 20.0 ]
				}

			}
, 			{
				"box" : 				{
					"fontname" : "Arial",
					"fontsize" : 12.0,
					"id" : "obj-122",
					"maxclass" : "newobj",
					"numinlets" : 4,
					"numoutlets" : 2,
					"outlettype" : [ "", "" ],
					"patching_rect" : [ 44.0, 44.0, 367.0, 20.0 ],
					"text" : "eco.partition @scale_min_out 36. @scale_max_out 96. @temp 10."
				}

			}
, 			{
				"box" : 				{
					"fontname" : "Arial",
					"fontsize" : 12.0,
					"id" : "obj-110",
					"maxclass" : "newobj",
					"numinlets" : 2,
					"numoutlets" : 1,
					"outlettype" : [ "int" ],
					"patching_rect" : [ 968.0, 632.0, 32.5, 20.0 ],
					"text" : "+ 1"
				}

			}
, 			{
				"box" : 				{
					"id" : "obj-109",
					"maxclass" : "toggle",
					"numinlets" : 1,
					"numoutlets" : 1,
					"outlettype" : [ "int" ],
					"parameter_enable" : 0,
					"patching_rect" : [ 968.0, 600.0, 20.0, 20.0 ]
				}

			}
, 			{
				"box" : 				{
					"fontname" : "Arial",
					"fontsize" : 12.0,
					"id" : "obj-107",
					"maxclass" : "newobj",
					"numinlets" : 3,
					"numoutlets" : 1,
					"outlettype" : [ "signal" ],
					"patching_rect" : [ 966.0, 655.5, 70.0, 20.0 ],
					"text" : "selector~ 2"
				}

			}
, 			{
				"box" : 				{
					"id" : "obj-89",
					"maxclass" : "spectroscope~",
					"numinlets" : 2,
					"numoutlets" : 1,
					"outlettype" : [ "" ],
					"patching_rect" : [ 1110.0, 483.0, 300.0, 100.0 ]
				}

			}
, 			{
				"box" : 				{
					"fontname" : "Arial",
					"fontsize" : 12.0,
					"id" : "obj-90",
					"maxclass" : "newobj",
					"numinlets" : 2,
					"numoutlets" : 2,
					"outlettype" : [ "", "" ],
					"patching_rect" : [ 1088.0, 263.0, 45.0, 20.0 ],
					"text" : "zl lace"
				}

			}
, 			{
				"box" : 				{
					"fontname" : "Arial",
					"fontsize" : 12.0,
					"id" : "obj-91",
					"maxclass" : "newobj",
					"numinlets" : 1,
					"numoutlets" : 1,
					"outlettype" : [ "" ],
					"patching_rect" : [ 1088.0, 239.0, 34.0, 20.0 ],
					"text" : "mtof"
				}

			}
, 			{
				"box" : 				{
					"fontname" : "Arial",
					"fontsize" : 12.0,
					"id" : "obj-92",
					"maxclass" : "newobj",
					"numinlets" : 1,
					"numoutlets" : 3,
					"outlettype" : [ "", "", "" ],
					"patching_rect" : [ 1160.0, 128.0, 46.0, 20.0 ],
					"text" : "t l l l"
				}

			}
, 			{
				"box" : 				{
					"fontname" : "Arial",
					"fontsize" : 12.0,
					"id" : "obj-93",
					"maxclass" : "newobj",
					"numinlets" : 2,
					"numoutlets" : 1,
					"outlettype" : [ "" ],
					"patching_rect" : [ 1209.0, 239.0, 37.0, 20.0 ],
					"text" : "ones"
				}

			}
, 			{
				"box" : 				{
					"fontname" : "Arial",
					"fontsize" : 12.0,
					"id" : "obj-94",
					"maxclass" : "newobj",
					"numinlets" : 2,
					"numoutlets" : 2,
					"outlettype" : [ "", "" ],
					"patching_rect" : [ 1160.0, 263.0, 45.0, 20.0 ],
					"text" : "zl lace"
				}

			}
, 			{
				"box" : 				{
					"fontname" : "Arial",
					"fontsize" : 12.0,
					"id" : "obj-95",
					"maxclass" : "newobj",
					"numinlets" : 2,
					"numoutlets" : 2,
					"outlettype" : [ "", "" ],
					"patching_rect" : [ 1209.0, 211.0, 39.0, 20.0 ],
					"text" : "zl len"
				}

			}
, 			{
				"box" : 				{
					"fontname" : "Arial",
					"fontsize" : 12.0,
					"id" : "obj-96",
					"maxclass" : "newobj",
					"numinlets" : 1,
					"numoutlets" : 1,
					"outlettype" : [ "" ],
					"patching_rect" : [ 1264.0, 232.0, 88.0, 20.0 ],
					"text" : "prepend chord"
				}

			}
, 			{
				"box" : 				{
					"id" : "obj-97",
					"maxclass" : "nslider",
					"mode" : 1,
					"numinlets" : 2,
					"numoutlets" : 2,
					"outlettype" : [ "int", "int" ],
					"parameter_enable" : 0,
					"patching_rect" : [ 1264.0, 263.0, 75.0, 198.0 ]
				}

			}
, 			{
				"box" : 				{
					"fontname" : "Arial",
					"fontsize" : 12.0,
					"id" : "obj-100",
					"maxclass" : "message",
					"numinlets" : 2,
					"numoutlets" : 1,
					"outlettype" : [ "" ],
					"patching_rect" : [ 608.0, 353.0, 102.0, 18.0 ],
					"text" : "nOsc 40, fade 20"
				}

			}
, 			{
				"box" : 				{
					"id" : "obj-101",
					"maxclass" : "gain~",
					"numinlets" : 2,
					"numoutlets" : 2,
					"outlettype" : [ "signal", "int" ],
					"parameter_enable" : 0,
					"patching_rect" : [ 1088.0, 483.0, 22.0, 140.0 ]
				}

			}
, 			{
				"box" : 				{
					"fontname" : "Arial",
					"fontsize" : 12.0,
					"id" : "obj-102",
					"maxclass" : "newobj",
					"numinlets" : 1,
					"numoutlets" : 1,
					"outlettype" : [ "signal" ],
					"patching_rect" : [ 1088.0, 455.0, 68.0, 20.0 ],
					"text" : "sinusoids~"
				}

			}
, 			{
				"box" : 				{
					"id" : "obj-103",
					"maxclass" : "toggle",
					"numinlets" : 1,
					"numoutlets" : 1,
					"outlettype" : [ "int" ],
					"parameter_enable" : 0,
					"patching_rect" : [ 608.0, 392.0, 20.0, 20.0 ]
				}

			}
, 			{
				"box" : 				{
					"fontname" : "Arial",
					"fontsize" : 12.0,
					"id" : "obj-104",
					"maxclass" : "newobj",
					"numinlets" : 1,
					"numoutlets" : 4,
					"outlettype" : [ "list", "float", "int", "bang" ],
					"patching_rect" : [ 1088.0, 407.0, 59.5, 20.0 ],
					"text" : "migrator"
				}

			}
, 			{
				"box" : 				{
					"fontname" : "Arial",
					"fontsize" : 12.0,
					"id" : "obj-87",
					"maxclass" : "number",
					"numinlets" : 1,
					"numoutlets" : 2,
					"outlettype" : [ "int", "bang" ],
					"parameter_enable" : 0,
					"patching_rect" : [ 892.0, 120.0, 50.0, 20.0 ]
				}

			}
, 			{
				"box" : 				{
					"id" : "obj-85",
					"maxclass" : "spectroscope~",
					"numinlets" : 2,
					"numoutlets" : 1,
					"outlettype" : [ "" ],
					"patching_rect" : [ 758.0, 483.0, 300.0, 100.0 ]
				}

			}
, 			{
				"box" : 				{
					"fontname" : "Arial",
					"fontsize" : 12.0,
					"id" : "obj-84",
					"maxclass" : "newobj",
					"numinlets" : 2,
					"numoutlets" : 2,
					"outlettype" : [ "", "" ],
					"patching_rect" : [ 736.0, 263.0, 45.0, 20.0 ],
					"text" : "zl lace"
				}

			}
, 			{
				"box" : 				{
					"fontname" : "Arial",
					"fontsize" : 12.0,
					"id" : "obj-83",
					"maxclass" : "newobj",
					"numinlets" : 1,
					"numoutlets" : 1,
					"outlettype" : [ "" ],
					"patching_rect" : [ 736.0, 239.0, 34.0, 20.0 ],
					"text" : "mtof"
				}

			}
, 			{
				"box" : 				{
					"fontname" : "Arial",
					"fontsize" : 12.0,
					"id" : "obj-77",
					"maxclass" : "newobj",
					"numinlets" : 1,
					"numoutlets" : 2,
					"outlettype" : [ "", "" ],
					"patching_rect" : [ 808.0, 184.0, 32.5, 20.0 ],
					"text" : "t l l"
				}

			}
, 			{
				"box" : 				{
					"fontname" : "Arial",
					"fontsize" : 12.0,
					"id" : "obj-78",
					"maxclass" : "newobj",
					"numinlets" : 2,
					"numoutlets" : 1,
					"outlettype" : [ "" ],
					"patching_rect" : [ 857.0, 239.0, 37.0, 20.0 ],
					"text" : "ones"
				}

			}
, 			{
				"box" : 				{
					"fontname" : "Arial",
					"fontsize" : 12.0,
					"id" : "obj-79",
					"maxclass" : "newobj",
					"numinlets" : 2,
					"numoutlets" : 2,
					"outlettype" : [ "", "" ],
					"patching_rect" : [ 808.0, 263.0, 45.0, 20.0 ],
					"text" : "zl lace"
				}

			}
, 			{
				"box" : 				{
					"fontname" : "Arial",
					"fontsize" : 12.0,
					"id" : "obj-80",
					"maxclass" : "newobj",
					"numinlets" : 2,
					"numoutlets" : 2,
					"outlettype" : [ "", "" ],
					"patching_rect" : [ 857.0, 211.0, 39.0, 20.0 ],
					"text" : "zl len"
				}

			}
, 			{
				"box" : 				{
					"fontname" : "Arial",
					"fontsize" : 12.0,
					"id" : "obj-81",
					"maxclass" : "newobj",
					"numinlets" : 1,
					"numoutlets" : 1,
					"outlettype" : [ "" ],
					"patching_rect" : [ 912.0, 232.0, 88.0, 20.0 ],
					"text" : "prepend chord"
				}

			}
, 			{
				"box" : 				{
					"id" : "obj-76",
					"maxclass" : "nslider",
					"mode" : 1,
					"numinlets" : 2,
					"numoutlets" : 2,
					"outlettype" : [ "int", "int" ],
					"parameter_enable" : 0,
					"patching_rect" : [ 912.0, 263.0, 75.0, 198.0 ]
				}

			}
, 			{
				"box" : 				{
					"fontname" : "Arial",
					"fontsize" : 12.0,
					"id" : "obj-75",
					"maxclass" : "newobj",
					"numinlets" : 2,
					"numoutlets" : 2,
					"outlettype" : [ "", "" ],
					"patching_rect" : [ 808.0, 156.0, 63.0, 20.0 ],
					"text" : "zl slice 10"
				}

			}
, 			{
				"box" : 				{
					"fontname" : "Arial",
					"fontsize" : 12.0,
					"id" : "obj-74",
					"maxclass" : "newobj",
					"numinlets" : 2,
					"numoutlets" : 2,
					"outlettype" : [ "", "" ],
					"patching_rect" : [ 808.0, 120.0, 71.0, 20.0 ],
					"text" : "zl scramble"
				}

			}
, 			{
				"box" : 				{
					"id" : "obj-71",
					"maxclass" : "ezdac~",
					"numinlets" : 2,
					"numoutlets" : 0,
					"patching_rect" : [ 966.0, 689.5, 45.0, 45.0 ]
				}

			}
, 			{
				"box" : 				{
					"id" : "obj-70",
					"maxclass" : "gain~",
					"numinlets" : 2,
					"numoutlets" : 2,
					"outlettype" : [ "signal", "int" ],
					"parameter_enable" : 0,
					"patching_rect" : [ 736.0, 483.0, 22.0, 140.0 ]
				}

			}
, 			{
				"box" : 				{
					"fontname" : "Arial",
					"fontsize" : 12.0,
					"id" : "obj-69",
					"maxclass" : "newobj",
					"numinlets" : 1,
					"numoutlets" : 1,
					"outlettype" : [ "signal" ],
					"patching_rect" : [ 736.0, 455.0, 68.0, 20.0 ],
					"text" : "sinusoids~"
				}

			}
, 			{
				"box" : 				{
					"fontname" : "Arial",
					"fontsize" : 12.0,
					"id" : "obj-66",
					"maxclass" : "newobj",
					"numinlets" : 1,
					"numoutlets" : 4,
					"outlettype" : [ "list", "float", "int", "bang" ],
					"patching_rect" : [ 736.0, 407.0, 59.5, 20.0 ],
					"text" : "migrator"
				}

			}
, 			{
				"box" : 				{
					"id" : "obj-65",
					"maxclass" : "button",
					"numinlets" : 1,
					"numoutlets" : 1,
					"outlettype" : [ "bang" ],
					"patching_rect" : [ 808.0, 32.0, 20.0, 20.0 ]
				}

			}
, 			{
				"box" : 				{
					"fontname" : "Arial",
					"fontsize" : 12.0,
					"id" : "obj-63",
					"maxclass" : "newobj",
					"numinlets" : 2,
					"numoutlets" : 2,
					"outlettype" : [ "", "" ],
					"patching_rect" : [ 808.0, 84.0, 40.0, 20.0 ],
					"text" : "zl reg"
				}

			}
, 			{
				"box" : 				{
					"fontname" : "Arial",
					"fontsize" : 12.0,
					"id" : "obj-26",
					"maxclass" : "message",
					"numinlets" : 2,
					"numoutlets" : 1,
					"outlettype" : [ "" ],
					"patching_rect" : [ 44.0, 16.0, 32.5, 18.0 ],
					"text" : "3"
				}

			}
, 			{
				"box" : 				{
					"fontname" : "Arial",
					"fontsize" : 12.0,
					"id" : "obj-20",
					"maxclass" : "newobj",
					"numinlets" : 1,
					"numoutlets" : 1,
					"outlettype" : [ "" ],
					"patching_rect" : [ 392.0, 72.0, 88.0, 20.0 ],
					"text" : "prepend chord"
				}

			}
, 			{
				"box" : 				{
					"id" : "obj-19",
					"maxclass" : "nslider",
					"mode" : 1,
					"numinlets" : 2,
					"numoutlets" : 2,
					"outlettype" : [ "int", "int" ],
					"parameter_enable" : 0,
					"patching_rect" : [ 392.0, 100.0, 75.0, 198.0 ]
				}

			}
 ],
		"lines" : [ 			{
				"patchline" : 				{
					"destination" : [ "obj-12", 0 ],
					"disabled" : 0,
					"hidden" : 0,
					"source" : [ "obj-10", 0 ]
				}

			}
, 			{
				"patchline" : 				{
					"destination" : [ "obj-104", 0 ],
					"disabled" : 0,
					"hidden" : 0,
					"source" : [ "obj-100", 0 ]
				}

			}
, 			{
				"patchline" : 				{
					"destination" : [ "obj-66", 0 ],
					"disabled" : 0,
					"hidden" : 0,
					"source" : [ "obj-100", 0 ]
				}

			}
, 			{
				"patchline" : 				{
					"destination" : [ "obj-107", 2 ],
					"disabled" : 0,
					"hidden" : 0,
					"source" : [ "obj-101", 0 ]
				}

			}
, 			{
				"patchline" : 				{
					"destination" : [ "obj-101", 0 ],
					"disabled" : 0,
					"hidden" : 0,
					"source" : [ "obj-102", 0 ]
				}

			}
, 			{
				"patchline" : 				{
					"destination" : [ "obj-89", 0 ],
					"disabled" : 0,
					"hidden" : 0,
					"source" : [ "obj-102", 0 ]
				}

			}
, 			{
				"patchline" : 				{
					"destination" : [ "obj-104", 0 ],
					"disabled" : 0,
					"hidden" : 0,
					"source" : [ "obj-103", 0 ]
				}

			}
, 			{
				"patchline" : 				{
					"destination" : [ "obj-66", 0 ],
					"disabled" : 0,
					"hidden" : 0,
					"source" : [ "obj-103", 0 ]
				}

			}
, 			{
				"patchline" : 				{
					"destination" : [ "obj-102", 0 ],
					"disabled" : 0,
					"hidden" : 0,
					"source" : [ "obj-104", 0 ]
				}

			}
, 			{
				"patchline" : 				{
					"destination" : [ "obj-23", 0 ],
					"disabled" : 0,
					"hidden" : 0,
					"source" : [ "obj-104", 0 ]
				}

			}
, 			{
				"patchline" : 				{
					"destination" : [ "obj-71", 1 ],
					"disabled" : 0,
					"hidden" : 0,
					"source" : [ "obj-107", 0 ]
				}

			}
, 			{
				"patchline" : 				{
					"destination" : [ "obj-71", 0 ],
					"disabled" : 0,
					"hidden" : 0,
					"source" : [ "obj-107", 0 ]
				}

			}
, 			{
				"patchline" : 				{
					"destination" : [ "obj-110", 0 ],
					"disabled" : 0,
					"hidden" : 0,
					"source" : [ "obj-109", 0 ]
				}

			}
, 			{
				"patchline" : 				{
					"destination" : [ "obj-12", 0 ],
					"disabled" : 0,
					"hidden" : 0,
					"source" : [ "obj-11", 0 ]
				}

			}
, 			{
				"patchline" : 				{
					"destination" : [ "obj-107", 0 ],
					"disabled" : 0,
					"hidden" : 0,
					"source" : [ "obj-110", 0 ]
				}

			}
, 			{
				"patchline" : 				{
					"destination" : [ "obj-37", 1 ],
					"disabled" : 0,
					"hidden" : 0,
					"source" : [ "obj-12", 0 ]
				}

			}
, 			{
				"patchline" : 				{
					"destination" : [ "obj-92", 0 ],
					"disabled" : 0,
					"hidden" : 0,
					"source" : [ "obj-12", 0 ]
				}

			}
, 			{
				"patchline" : 				{
					"destination" : [ "obj-20", 0 ],
					"disabled" : 0,
					"hidden" : 0,
					"source" : [ "obj-122", 1 ]
				}

			}
, 			{
				"patchline" : 				{
					"destination" : [ "obj-4", 0 ],
					"disabled" : 0,
					"hidden" : 0,
					"source" : [ "obj-122", 0 ]
				}

			}
, 			{
				"patchline" : 				{
					"destination" : [ "obj-8", 0 ],
					"disabled" : 0,
					"hidden" : 0,
					"source" : [ "obj-126", 0 ]
				}

			}
, 			{
				"patchline" : 				{
					"destination" : [ "obj-171", 0 ],
					"disabled" : 0,
					"hidden" : 0,
					"source" : [ "obj-134", 0 ]
				}

			}
, 			{
				"patchline" : 				{
					"destination" : [ "obj-9", 1 ],
					"disabled" : 0,
					"hidden" : 0,
					"source" : [ "obj-134", 1 ]
				}

			}
, 			{
				"patchline" : 				{
					"destination" : [ "obj-14", 0 ],
					"disabled" : 0,
					"hidden" : 0,
					"source" : [ "obj-136", 0 ]
				}

			}
, 			{
				"patchline" : 				{
					"destination" : [ "obj-146", 0 ],
					"disabled" : 0,
					"hidden" : 0,
					"source" : [ "obj-14", 1 ]
				}

			}
, 			{
				"patchline" : 				{
					"destination" : [ "obj-153", 0 ],
					"disabled" : 0,
					"hidden" : 0,
					"source" : [ "obj-14", 2 ]
				}

			}
, 			{
				"patchline" : 				{
					"destination" : [ "obj-169", 1 ],
					"disabled" : 0,
					"hidden" : 0,
					"source" : [ "obj-14", 0 ]
				}

			}
, 			{
				"patchline" : 				{
					"destination" : [ "obj-171", 1 ],
					"disabled" : 0,
					"hidden" : 0,
					"source" : [ "obj-146", 0 ]
				}

			}
, 			{
				"patchline" : 				{
					"destination" : [ "obj-7", 1 ],
					"disabled" : 0,
					"hidden" : 0,
					"source" : [ "obj-146", 1 ]
				}

			}
, 			{
				"patchline" : 				{
					"destination" : [ "obj-158", 0 ],
					"disabled" : 0,
					"hidden" : 0,
					"source" : [ "obj-154", 0 ]
				}

			}
, 			{
				"patchline" : 				{
					"destination" : [ "obj-157", 0 ],
					"disabled" : 0,
					"hidden" : 0,
					"source" : [ "obj-155", 0 ]
				}

			}
, 			{
				"patchline" : 				{
					"destination" : [ "obj-154", 0 ],
					"disabled" : 0,
					"hidden" : 0,
					"source" : [ "obj-157", 0 ]
				}

			}
, 			{
				"patchline" : 				{
					"destination" : [ "obj-169", 0 ],
					"disabled" : 0,
					"hidden" : 0,
					"source" : [ "obj-157", 1 ]
				}

			}
, 			{
				"patchline" : 				{
					"destination" : [ "obj-170", 1 ],
					"disabled" : 0,
					"hidden" : 0,
					"source" : [ "obj-157", 2 ]
				}

			}
, 			{
				"patchline" : 				{
					"destination" : [ "obj-159", 0 ],
					"disabled" : 0,
					"hidden" : 0,
					"source" : [ "obj-158", 1 ]
				}

			}
, 			{
				"patchline" : 				{
					"destination" : [ "obj-134", 0 ],
					"disabled" : 0,
					"hidden" : 0,
					"source" : [ "obj-159", 0 ]
				}

			}
, 			{
				"patchline" : 				{
					"destination" : [ "obj-12", 0 ],
					"disabled" : 0,
					"hidden" : 0,
					"source" : [ "obj-16", 0 ]
				}

			}
, 			{
				"patchline" : 				{
					"destination" : [ "obj-155", 0 ],
					"disabled" : 0,
					"hidden" : 0,
					"source" : [ "obj-16", 1 ]
				}

			}
, 			{
				"patchline" : 				{
					"destination" : [ "obj-17", 3 ],
					"disabled" : 0,
					"hidden" : 0,
					"source" : [ "obj-16", 2 ]
				}

			}
, 			{
				"patchline" : 				{
					"destination" : [ "obj-22", 3 ],
					"disabled" : 0,
					"hidden" : 0,
					"source" : [ "obj-16", 2 ]
				}

			}
, 			{
				"patchline" : 				{
					"destination" : [ "obj-36", 1 ],
					"disabled" : 0,
					"hidden" : 0,
					"source" : [ "obj-16", 1 ]
				}

			}
, 			{
				"patchline" : 				{
					"destination" : [ "obj-146", 0 ],
					"disabled" : 0,
					"hidden" : 0,
					"source" : [ "obj-165", 0 ]
				}

			}
, 			{
				"patchline" : 				{
					"destination" : [ "obj-165", 0 ],
					"disabled" : 0,
					"hidden" : 0,
					"source" : [ "obj-166", 1 ]
				}

			}
, 			{
				"patchline" : 				{
					"destination" : [ "obj-166", 0 ],
					"disabled" : 0,
					"hidden" : 0,
					"source" : [ "obj-169", 0 ]
				}

			}
, 			{
				"patchline" : 				{
					"destination" : [ "obj-18", 0 ],
					"disabled" : 0,
					"hidden" : 0,
					"source" : [ "obj-17", 0 ]
				}

			}
, 			{
				"patchline" : 				{
					"destination" : [ "obj-172", 0 ],
					"disabled" : 0,
					"hidden" : 0,
					"source" : [ "obj-170", 0 ]
				}

			}
, 			{
				"patchline" : 				{
					"destination" : [ "obj-170", 0 ],
					"disabled" : 0,
					"hidden" : 0,
					"source" : [ "obj-171", 0 ]
				}

			}
, 			{
				"patchline" : 				{
					"destination" : [ "obj-173", 0 ],
					"disabled" : 0,
					"hidden" : 0,
					"source" : [ "obj-172", 1 ]
				}

			}
, 			{
				"patchline" : 				{
					"destination" : [ "obj-6", 0 ],
					"disabled" : 0,
					"hidden" : 0,
					"source" : [ "obj-173", 0 ]
				}

			}
, 			{
				"patchline" : 				{
					"destination" : [ "obj-91", 0 ],
					"disabled" : 0,
					"hidden" : 0,
					"source" : [ "obj-2", 0 ]
				}

			}
, 			{
				"patchline" : 				{
					"destination" : [ "obj-19", 0 ],
					"disabled" : 0,
					"hidden" : 0,
					"source" : [ "obj-20", 0 ]
				}

			}
, 			{
				"patchline" : 				{
					"destination" : [ "obj-21", 0 ],
					"disabled" : 0,
					"hidden" : 0,
					"source" : [ "obj-22", 0 ]
				}

			}
, 			{
				"patchline" : 				{
					"destination" : [ "obj-25", 0 ],
					"disabled" : 0,
					"hidden" : 0,
					"source" : [ "obj-23", 0 ]
				}

			}
, 			{
				"patchline" : 				{
					"destination" : [ "obj-29", 0 ],
					"disabled" : 0,
					"hidden" : 0,
					"source" : [ "obj-23", 0 ]
				}

			}
, 			{
				"patchline" : 				{
					"destination" : [ "obj-122", 0 ],
					"disabled" : 0,
					"hidden" : 0,
					"source" : [ "obj-26", 0 ]
				}

			}
, 			{
				"patchline" : 				{
					"destination" : [ "obj-100", 0 ],
					"disabled" : 0,
					"hidden" : 0,
					"source" : [ "obj-3", 0 ]
				}

			}
, 			{
				"patchline" : 				{
					"destination" : [ "obj-103", 0 ],
					"disabled" : 0,
					"hidden" : 0,
					"source" : [ "obj-3", 0 ]
				}

			}
, 			{
				"patchline" : 				{
					"destination" : [ "obj-126", 0 ],
					"disabled" : 0,
					"hidden" : 0,
					"source" : [ "obj-3", 0 ]
				}

			}
, 			{
				"patchline" : 				{
					"destination" : [ "obj-136", 0 ],
					"disabled" : 0,
					"hidden" : 0,
					"source" : [ "obj-3", 0 ]
				}

			}
, 			{
				"patchline" : 				{
					"destination" : [ "obj-4", 1 ],
					"disabled" : 0,
					"hidden" : 0,
					"source" : [ "obj-32", 0 ]
				}

			}
, 			{
				"patchline" : 				{
					"destination" : [ "obj-92", 0 ],
					"disabled" : 0,
					"hidden" : 0,
					"source" : [ "obj-34", 0 ]
				}

			}
, 			{
				"patchline" : 				{
					"destination" : [ "obj-63", 1 ],
					"disabled" : 0,
					"hidden" : 0,
					"source" : [ "obj-35", 0 ]
				}

			}
, 			{
				"patchline" : 				{
					"destination" : [ "obj-64", 0 ],
					"disabled" : 0,
					"hidden" : 0,
					"source" : [ "obj-35", 0 ]
				}

			}
, 			{
				"patchline" : 				{
					"destination" : [ "obj-92", 0 ],
					"disabled" : 0,
					"hidden" : 0,
					"source" : [ "obj-35", 0 ]
				}

			}
, 			{
				"patchline" : 				{
					"destination" : [ "obj-34", 0 ],
					"disabled" : 0,
					"hidden" : 0,
					"source" : [ "obj-36", 0 ]
				}

			}
, 			{
				"patchline" : 				{
					"destination" : [ "obj-35", 0 ],
					"disabled" : 0,
					"hidden" : 0,
					"source" : [ "obj-37", 0 ]
				}

			}
, 			{
				"patchline" : 				{
					"destination" : [ "obj-40", 1 ],
					"disabled" : 0,
					"hidden" : 0,
					"source" : [ "obj-39", 0 ]
				}

			}
, 			{
				"patchline" : 				{
					"destination" : [ "obj-16", 0 ],
					"disabled" : 0,
					"hidden" : 0,
					"source" : [ "obj-4", 0 ]
				}

			}
, 			{
				"patchline" : 				{
					"destination" : [ "obj-63", 1 ],
					"disabled" : 0,
					"hidden" : 0,
					"source" : [ "obj-4", 0 ]
				}

			}
, 			{
				"patchline" : 				{
					"destination" : [ "obj-36", 0 ],
					"disabled" : 0,
					"hidden" : 0,
					"source" : [ "obj-40", 0 ]
				}

			}
, 			{
				"patchline" : 				{
					"destination" : [ "obj-37", 0 ],
					"disabled" : 0,
					"hidden" : 0,
					"source" : [ "obj-40", 0 ]
				}

			}
, 			{
				"patchline" : 				{
					"destination" : [ "obj-40", 0 ],
					"disabled" : 0,
					"hidden" : 0,
					"source" : [ "obj-42", 0 ]
				}

			}
, 			{
				"patchline" : 				{
					"destination" : [ "obj-35", 0 ],
					"disabled" : 0,
					"hidden" : 0,
					"source" : [ "obj-43", 0 ]
				}

			}
, 			{
				"patchline" : 				{
					"destination" : [ "obj-92", 0 ],
					"disabled" : 0,
					"hidden" : 0,
					"source" : [ "obj-46", 0 ]
				}

			}
, 			{
				"patchline" : 				{
					"destination" : [ "obj-35", 0 ],
					"disabled" : 0,
					"hidden" : 0,
					"source" : [ "obj-48", 0 ]
				}

			}
, 			{
				"patchline" : 				{
					"destination" : [ "obj-35", 0 ],
					"disabled" : 0,
					"hidden" : 0,
					"source" : [ "obj-49", 0 ]
				}

			}
, 			{
				"patchline" : 				{
					"destination" : [ "obj-34", 0 ],
					"disabled" : 0,
					"hidden" : 0,
					"source" : [ "obj-5", 0 ]
				}

			}
, 			{
				"patchline" : 				{
					"destination" : [ "obj-35", 0 ],
					"disabled" : 0,
					"hidden" : 0,
					"source" : [ "obj-50", 0 ]
				}

			}
, 			{
				"patchline" : 				{
					"destination" : [ "obj-35", 0 ],
					"disabled" : 0,
					"hidden" : 0,
					"source" : [ "obj-51", 0 ]
				}

			}
, 			{
				"patchline" : 				{
					"destination" : [ "obj-35", 0 ],
					"disabled" : 0,
					"hidden" : 0,
					"source" : [ "obj-52", 0 ]
				}

			}
, 			{
				"patchline" : 				{
					"destination" : [ "obj-17", 0 ],
					"disabled" : 0,
					"hidden" : 0,
					"source" : [ "obj-6", 0 ]
				}

			}
, 			{
				"patchline" : 				{
					"destination" : [ "obj-22", 0 ],
					"disabled" : 0,
					"hidden" : 0,
					"source" : [ "obj-6", 1 ]
				}

			}
, 			{
				"patchline" : 				{
					"destination" : [ "obj-7", 0 ],
					"disabled" : 0,
					"hidden" : 0,
					"source" : [ "obj-6", 1 ]
				}

			}
, 			{
				"patchline" : 				{
					"destination" : [ "obj-9", 0 ],
					"disabled" : 0,
					"hidden" : 0,
					"source" : [ "obj-6", 0 ]
				}

			}
, 			{
				"patchline" : 				{
					"destination" : [ "obj-74", 0 ],
					"disabled" : 0,
					"hidden" : 0,
					"source" : [ "obj-63", 0 ]
				}

			}
, 			{
				"patchline" : 				{
					"destination" : [ "obj-35", 0 ],
					"disabled" : 0,
					"hidden" : 0,
					"source" : [ "obj-64", 0 ]
				}

			}
, 			{
				"patchline" : 				{
					"destination" : [ "obj-63", 0 ],
					"disabled" : 0,
					"hidden" : 0,
					"source" : [ "obj-65", 0 ]
				}

			}
, 			{
				"patchline" : 				{
					"destination" : [ "obj-69", 0 ],
					"disabled" : 0,
					"hidden" : 0,
					"source" : [ "obj-66", 0 ]
				}

			}
, 			{
				"patchline" : 				{
					"destination" : [ "obj-70", 0 ],
					"disabled" : 0,
					"hidden" : 0,
					"source" : [ "obj-69", 0 ]
				}

			}
, 			{
				"patchline" : 				{
					"destination" : [ "obj-85", 0 ],
					"disabled" : 0,
					"hidden" : 0,
					"source" : [ "obj-69", 0 ]
				}

			}
, 			{
				"patchline" : 				{
					"destination" : [ "obj-11", 0 ],
					"disabled" : 0,
					"hidden" : 0,
					"source" : [ "obj-7", 0 ]
				}

			}
, 			{
				"patchline" : 				{
					"destination" : [ "obj-107", 1 ],
					"disabled" : 0,
					"hidden" : 0,
					"source" : [ "obj-70", 0 ]
				}

			}
, 			{
				"patchline" : 				{
					"destination" : [ "obj-75", 0 ],
					"disabled" : 0,
					"hidden" : 0,
					"source" : [ "obj-74", 0 ]
				}

			}
, 			{
				"patchline" : 				{
					"destination" : [ "obj-77", 0 ],
					"disabled" : 0,
					"hidden" : 0,
					"source" : [ "obj-75", 0 ]
				}

			}
, 			{
				"patchline" : 				{
					"destination" : [ "obj-79", 0 ],
					"disabled" : 0,
					"hidden" : 0,
					"source" : [ "obj-77", 0 ]
				}

			}
, 			{
				"patchline" : 				{
					"destination" : [ "obj-80", 0 ],
					"disabled" : 0,
					"hidden" : 0,
					"source" : [ "obj-77", 1 ]
				}

			}
, 			{
				"patchline" : 				{
					"destination" : [ "obj-83", 0 ],
					"disabled" : 0,
					"hidden" : 0,
					"source" : [ "obj-77", 0 ]
				}

			}
, 			{
				"patchline" : 				{
					"destination" : [ "obj-79", 1 ],
					"disabled" : 0,
					"hidden" : 0,
					"source" : [ "obj-78", 0 ]
				}

			}
, 			{
				"patchline" : 				{
					"destination" : [ "obj-84", 1 ],
					"disabled" : 0,
					"hidden" : 0,
					"source" : [ "obj-78", 0 ]
				}

			}
, 			{
				"patchline" : 				{
					"destination" : [ "obj-81", 0 ],
					"disabled" : 0,
					"hidden" : 0,
					"source" : [ "obj-79", 0 ]
				}

			}
, 			{
				"patchline" : 				{
					"destination" : [ "obj-134", 0 ],
					"disabled" : 0,
					"hidden" : 0,
					"source" : [ "obj-8", 1 ]
				}

			}
, 			{
				"patchline" : 				{
					"destination" : [ "obj-154", 1 ],
					"disabled" : 0,
					"hidden" : 0,
					"source" : [ "obj-8", 0 ]
				}

			}
, 			{
				"patchline" : 				{
					"destination" : [ "obj-78", 0 ],
					"disabled" : 0,
					"hidden" : 0,
					"source" : [ "obj-80", 0 ]
				}

			}
, 			{
				"patchline" : 				{
					"destination" : [ "obj-76", 0 ],
					"disabled" : 0,
					"hidden" : 0,
					"source" : [ "obj-81", 0 ]
				}

			}
, 			{
				"patchline" : 				{
					"destination" : [ "obj-84", 0 ],
					"disabled" : 0,
					"hidden" : 0,
					"source" : [ "obj-83", 0 ]
				}

			}
, 			{
				"patchline" : 				{
					"destination" : [ "obj-66", 0 ],
					"disabled" : 0,
					"hidden" : 0,
					"source" : [ "obj-84", 0 ]
				}

			}
, 			{
				"patchline" : 				{
					"destination" : [ "obj-75", 1 ],
					"disabled" : 0,
					"hidden" : 0,
					"source" : [ "obj-87", 0 ]
				}

			}
, 			{
				"patchline" : 				{
					"destination" : [ "obj-10", 0 ],
					"disabled" : 0,
					"hidden" : 0,
					"source" : [ "obj-9", 0 ]
				}

			}
, 			{
				"patchline" : 				{
					"destination" : [ "obj-104", 0 ],
					"disabled" : 0,
					"hidden" : 0,
					"source" : [ "obj-90", 0 ]
				}

			}
, 			{
				"patchline" : 				{
					"destination" : [ "obj-90", 0 ],
					"disabled" : 0,
					"hidden" : 0,
					"source" : [ "obj-91", 0 ]
				}

			}
, 			{
				"patchline" : 				{
					"destination" : [ "obj-185", 1 ],
					"disabled" : 0,
					"hidden" : 0,
					"source" : [ "obj-92", 2 ]
				}

			}
, 			{
				"patchline" : 				{
					"destination" : [ "obj-91", 0 ],
					"disabled" : 0,
					"hidden" : 0,
					"source" : [ "obj-92", 0 ]
				}

			}
, 			{
				"patchline" : 				{
					"destination" : [ "obj-94", 0 ],
					"disabled" : 0,
					"hidden" : 0,
					"source" : [ "obj-92", 0 ]
				}

			}
, 			{
				"patchline" : 				{
					"destination" : [ "obj-95", 0 ],
					"disabled" : 0,
					"hidden" : 0,
					"source" : [ "obj-92", 1 ]
				}

			}
, 			{
				"patchline" : 				{
					"destination" : [ "obj-90", 1 ],
					"disabled" : 0,
					"hidden" : 0,
					"source" : [ "obj-93", 0 ]
				}

			}
, 			{
				"patchline" : 				{
					"destination" : [ "obj-94", 1 ],
					"disabled" : 0,
					"hidden" : 0,
					"source" : [ "obj-93", 0 ]
				}

			}
, 			{
				"patchline" : 				{
					"destination" : [ "obj-96", 0 ],
					"disabled" : 0,
					"hidden" : 0,
					"source" : [ "obj-94", 0 ]
				}

			}
, 			{
				"patchline" : 				{
					"destination" : [ "obj-93", 0 ],
					"disabled" : 0,
					"hidden" : 0,
					"source" : [ "obj-95", 0 ]
				}

			}
, 			{
				"patchline" : 				{
					"destination" : [ "obj-97", 0 ],
					"disabled" : 0,
					"hidden" : 0,
					"source" : [ "obj-96", 0 ]
				}

			}
 ],
		"dependency_cache" : [ 			{
				"name" : "ones.maxpat",
				"bootpath" : "/Users/john/MMJ6/CNMAT-Everything-OSX-MachO/CNMAT_MMJ-Depot/modules/Data_Generation",
				"patcherrelativepath" : "../../../../MMJ6/CNMAT-Everything-OSX-MachO/CNMAT_MMJ-Depot/modules/Data_Generation",
				"type" : "JSON",
				"implicit" : 1
			}
, 			{
				"name" : "zeros.maxpat",
				"bootpath" : "/Users/john/MMJ6/CNMAT-Everything-OSX-MachO/CNMAT_MMJ-Depot/modules/Data_Generation",
				"patcherrelativepath" : "../../../../MMJ6/CNMAT-Everything-OSX-MachO/CNMAT_MMJ-Depot/modules/Data_Generation",
				"type" : "JSON",
				"implicit" : 1
			}
, 			{
				"name" : "eco.partition.maxpat",
				"bootpath" : "/Users/john/jmac/compositions/ECO/workspace",
				"patcherrelativepath" : "",
				"type" : "JSON",
				"implicit" : 1
			}
, 			{
				"name" : "list-cumulative-sum.maxpat",
				"bootpath" : "/Users/john/MMJ6/CNMAT-Everything-OSX-MachO/CNMAT_MMJ-Depot/modules/Lists",
				"patcherrelativepath" : "../../../../MMJ6/CNMAT-Everything-OSX-MachO/CNMAT_MMJ-Depot/modules/Lists",
				"type" : "JSON",
				"implicit" : 1
			}
, 			{
				"name" : "badge.maxpat",
				"bootpath" : "/Users/john/MMJ6/CNMAT-Everything-OSX-MachO/CNMAT_MMJ-Depot/modules/Depot_Support",
				"patcherrelativepath" : "../../../../MMJ6/CNMAT-Everything-OSX-MachO/CNMAT_MMJ-Depot/modules/Depot_Support",
				"type" : "JSON",
				"implicit" : 1
			}
, 			{
				"name" : "uc_license.maxpat",
				"bootpath" : "/Users/john/MMJ6/CNMAT-Everything-OSX-MachO/CNMAT_MMJ-Depot/modules/Depot_Support",
				"patcherrelativepath" : "../../../../MMJ6/CNMAT-Everything-OSX-MachO/CNMAT_MMJ-Depot/modules/Depot_Support",
				"type" : "JSON",
				"implicit" : 1
			}
, 			{
				"name" : "cnmat_blue.gif",
				"bootpath" : "/Users/john/MMJ6/CNMAT-Everything-OSX-MachO/CNMAT_MMJ-Depot/modules/Depot_Support",
				"patcherrelativepath" : "../../../../MMJ6/CNMAT-Everything-OSX-MachO/CNMAT_MMJ-Depot/modules/Depot_Support",
				"type" : "GIFf",
				"implicit" : 1
			}
, 			{
				"name" : "myNotes.js",
				"bootpath" : "/Users/john/MMJ6/CNMAT-Everything-OSX-MachO/CNMAT_MMJ-Depot/modules/Depot_Support",
				"patcherrelativepath" : "../../../../MMJ6/CNMAT-Everything-OSX-MachO/CNMAT_MMJ-Depot/modules/Depot_Support",
				"type" : "TEXT",
				"implicit" : 1
			}
, 			{
				"name" : "take_notes.maxpat",
				"bootpath" : "/Users/john/MMJ6/CNMAT-Everything-OSX-MachO/CNMAT_MMJ-Depot/modules/Depot_Support",
				"patcherrelativepath" : "../../../../MMJ6/CNMAT-Everything-OSX-MachO/CNMAT_MMJ-Depot/modules/Depot_Support",
				"type" : "JSON",
				"implicit" : 1
			}
, 			{
				"name" : "migrator.mxo",
				"type" : "iLaX"
			}
, 			{
				"name" : "sinusoids~.mxo",
				"type" : "iLaX"
			}
, 			{
				"name" : "randdist.mxo",
				"type" : "iLaX"
			}
, 			{
				"name" : "roughness.mxo",
				"type" : "iLaX"
			}
 ]
	}

}
